<?xml version="1.0" encoding="UTF-8" standalone="no"?>
<!-- Created with Inkscape (http://www.inkscape.org/) -->

<svg
   width="80.906754mm"
   height="88.923035mm"
   viewBox="0 0 80.906753 88.923033"
   version="1.1"
   id="svg11259"
   xml:space="preserve"
   xmlns:xlink="http://www.w3.org/1999/xlink"
   xmlns="http://www.w3.org/2000/svg"
   xmlns:svg="http://www.w3.org/2000/svg"><defs
     id="defs11256"><linearGradient
       id="Flame"><stop
         style="stop-color:#f12711;stop-opacity:1;"
         offset="0"
         id="stop1231" /><stop
         style="stop-color:#f5af19;stop-opacity:1;"
         offset="1"
         id="stop1233" /></linearGradient><linearGradient
       id="linearGradient17590"><stop
         style="stop-color:#b5b5b5;stop-opacity:1;"
         offset="0"
         id="stop17586" /><stop
         style="stop-color:#fdfdfd;stop-opacity:1;"
         offset="1"
         id="stop17588" /></linearGradient><linearGradient
       id="linearGradient10494"><stop
         style="stop-color:#ed213a;stop-opacity:1;"
         offset="0"
         id="stop17581" /><stop
         style="stop-color:#93291e;stop-opacity:1;"
         offset="1"
         id="stop17583" /></linearGradient><linearGradient
       id="Flame-1"><stop
         style="stop-color:#11998e;stop-opacity:1;"
         offset="0"
         id="stop9230" /><stop
         style="stop-color:#38ef7d;stop-opacity:1;"
         offset="1"
         id="stop9232" /></linearGradient><linearGradient
       id="linearGradient10494-1"><stop
         style="stop-color:#7f7f7f;stop-opacity:1;"
         offset="0"
         id="stop10490" /><stop
         style="stop-color:#bcbcbc;stop-opacity:1;"
         offset="1"
         id="stop10492" /></linearGradient><symbol
       id="s"
       overflow="visible"><path
         d="m 18.766,-1.125 c -0.96875,0.5 -1.9805,0.875 -3.0312,1.125 -1.043,0.25781 -2.1367,0.39062 -3.2812,0.39062 -3.3984,0 -6.0898,-0.94531 -8.0781,-2.8438 -1.9922,-1.9062 -2.9844,-4.4844 -2.9844,-7.7344 0,-3.2578 0.99219,-5.8359 2.9844,-7.7344 1.9883,-1.9062 4.6797,-2.8594 8.0781,-2.8594 1.1445,0 2.2383,0.13281 3.2812,0.39062 1.0508,0.25 2.0625,0.625 3.0312,1.125 v 4.2188 c -0.98047,-0.65625 -1.9453,-1.1406 -2.8906,-1.4531 -0.94922,-0.3125 -1.9492,-0.46875 -3,-0.46875 -1.875,0 -3.3516,0.60547 -4.4219,1.8125 -1.0742,1.1992 -1.6094,2.8555 -1.6094,4.9688 0,2.1055 0.53516,3.7617 1.6094,4.9688 1.0703,1.1992 2.5469,1.7969 4.4219,1.7969 1.0508,0 2.0508,-0.14844 3,-0.45312 0.94531,-0.3125 1.9102,-0.80078 2.8906,-1.4688 z"
         id="path15044" /></symbol><symbol
       id="c"
       overflow="visible"><path
         d="m 13.734,-11.141 c -0.4375,-0.19531 -0.87109,-0.34375 -1.2969,-0.4375 -0.41797,-0.10156 -0.83984,-0.15625 -1.2656,-0.15625 -1.2617,0 -2.2305,0.40625 -2.9062,1.2188 -0.67969,0.80469 -1.0156,1.9531 -1.0156,3.4531 v 7.0625 H 2.3591 v -15.312 h 4.8906 v 2.5156 c 0.625,-1 1.3438,-1.7266 2.1562,-2.1875 0.82031,-0.46875 1.8008,-0.70312 2.9375,-0.70312 0.16406,0 0.34375,0.01172 0.53125,0.03125 0.19531,0.01172 0.47656,0.03906 0.84375,0.07813 z"
         id="path15047" /></symbol><symbol
       id="a"
       overflow="visible"><path
         d="m 17.641,-7.7031 v 1.4062 H 6.188 c 0.125,1.1484 0.53906,2.0078 1.25,2.5781 0.70703,0.57422 1.7031,0.85938 2.9844,0.85938 1.0312,0 2.082,-0.14844 3.1562,-0.45312 1.082,-0.3125 2.1914,-0.77344 3.3281,-1.3906 v 3.7656 c -1.1562,0.4375 -2.3125,0.76562 -3.4688,0.98438 -1.1562,0.22656 -2.3125,0.34375 -3.4688,0.34375 -2.7734,0 -4.9297,-0.70312 -6.4688,-2.1094 -1.5312,-1.4062 -2.2969,-3.3789 -2.2969,-5.9219 0,-2.5 0.75391,-4.4609 2.2656,-5.8906 1.5078,-1.4375 3.582,-2.1562 6.2188,-2.1562 2.4062,0 4.332,0.73047 5.7812,2.1875 1.4453,1.4492 2.1719,3.3828 2.1719,5.7969 z m -5.0312,-1.625 c 0,-0.92578 -0.27344,-1.6719 -0.8125,-2.2344 -0.54297,-0.57031 -1.25,-0.85938 -2.125,-0.85938 -0.94922,0 -1.7188,0.26562 -2.3125,0.79688 -0.5937,0.53126 -0.96484,1.2969 -1.1094,2.2969 z"
         id="path15050" /></symbol><symbol
       id="f"
       overflow="visible"><path
         d="m 9.2188,-6.8906 c -1.0234,0 -1.793,0.17188 -2.3125,0.51562 -0.51172,0.34375 -0.76562,0.85547 -0.76562,1.5312 0,0.625 0.20703,1.1172 0.625,1.4688 0.41406,0.34375 0.98828,0.51562 1.7188,0.51562 0.92578,0 1.7031,-0.32812 2.3281,-0.98438 0.63281,-0.66406 0.95312,-1.4922 0.95312,-2.4844 v -0.5625 z m 7.4688,-1.8438 V 0 h -4.9219 v -2.2656 c -0.65625,0.92969 -1.3984,1.6055 -2.2188,2.0312 -0.82422,0.41406 -1.8242,0.625 -3,0.625 -1.5859,0 -2.8711,-0.45703 -3.8594,-1.375 -0.99219,-0.92578 -1.4844,-2.1289 -1.4844,-3.6094 0,-1.7891 0.61328,-3.1016 1.8438,-3.9375 1.2383,-0.84375 3.1797,-1.2656 5.8281,-1.2656 h 2.8906 v -0.39062 c 0,-0.76953 -0.30859,-1.332 -0.92188,-1.6875 -0.61719,-0.36328 -1.5703,-0.54688 -2.8594,-0.54688 -1.0547,0 -2.0312,0.10547 -2.9375,0.3125 -0.89844,0.21094 -1.7305,0.52344 -2.5,0.9375 v -3.7344 c 1.0391,-0.25 2.0859,-0.44141 3.1406,-0.57812 1.0625,-0.13281 2.125,-0.20312 3.1875,-0.20312 2.7578,0 4.75,0.54688 5.9688,1.6406 1.2266,1.0859 1.8438,2.8555 1.8438,5.3125 z"
         id="path15053" /></symbol><symbol
       id="b"
       overflow="visible"><path
         d="m 7.7031,-19.656 v 4.3438 H 12.75 v 3.5 H 7.7031 v 6.5 c 0,0.71094 0.14062,1.1875 0.42188,1.4375 0.28126,0.25 0.83594,0.375 1.6719,0.375 h 2.5156 v 3.5 h -4.1875 c -1.9375,0 -3.3125,-0.39844 -4.125,-1.2031 -0.80469,-0.8125 -1.2031,-2.1797 -1.2031,-4.1094 v -6.5 h -2.4219 v -3.5 h 2.4219 v -4.3438 z"
         id="path15056" /></symbol><symbol
       id="e"
       overflow="visible"><path
         d="m 12.766,-13.078 v -8.2031 h 4.9219 V -10e-5 H 12.766 v -2.2188 c -0.66797,0.90625 -1.4062,1.5703 -2.2188,1.9844 -0.8126,0.4141 -1.7578,0.625 -2.8281,0.625 -1.8867,0 -3.4336,-0.75 -4.6406,-2.25 -1.2109,-1.5 -1.8125,-3.4258 -1.8125,-5.7812 0,-2.3633 0.60156,-4.2969 1.8125,-5.7969 1.207,-1.5 2.7539,-2.25 4.6406,-2.25 1.0625,0 2,0.21484 2.8125,0.64062 0.82031,0.42969 1.5664,1.0859 2.2344,1.9688 z m -3.2188,9.9219 c 1.0391,0 1.8359,-0.37891 2.3906,-1.1406 0.55078,-0.76953 0.82812,-1.8828 0.82812,-3.3438 0,-1.457 -0.27734,-2.5664 -0.82812,-3.3281 -0.55469,-0.76953 -1.3516,-1.1562 -2.3906,-1.1562 -1.043,0 -1.8398,0.38672 -2.3906,1.1562 -0.55469,0.76172 -0.82812,1.8711 -0.82812,3.3281 0,1.4609 0.27344,2.5742 0.82812,3.3438 0.55078,0.76172 1.3477,1.1406 2.3906,1.1406 z"
         id="path15059" /></symbol><symbol
       id="i"
       overflow="visible"><path
         d="m 10.5,-3.1562 c 1.0508,0 1.8516,-0.37891 2.4062,-1.1406 0.55078,-0.76953 0.82812,-1.8828 0.82812,-3.3438 0,-1.457 -0.27734,-2.5664 -0.82812,-3.3281 -0.55469,-0.76953 -1.3555,-1.1562 -2.4062,-1.1562 -1.0547,0 -1.8594,0.38672 -2.4219,1.1562 -0.55469,0.77344 -0.82812,1.8828 -0.82812,3.3281 0,1.4492 0.27344,2.5586 0.82812,3.3281 0.5625,0.77344 1.3672,1.1562 2.4219,1.1562 z m -3.25,-9.9219 c 0.67578,-0.88281 1.4219,-1.5391 2.2344,-1.9688 0.82031,-0.42578 1.7656,-0.64062 2.8281,-0.64062 1.8945,0 3.4453,0.75 4.6562,2.25 1.207,1.5 1.8125,3.4336 1.8125,5.7969 0,2.3555 -0.60547,4.2812 -1.8125,5.7812 -1.2109,1.5 -2.7617,2.25 -4.6562,2.25 -1.0625,0 -2.0078,-0.21094 -2.8281,-0.625 C 8.6719,-0.6602 7.9258,-1.32032 7.25,-2.21882 V -2e-5 H 2.3594 v -21.281 H 7.25 Z"
         id="path15062" /></symbol><symbol
       id="h"
       overflow="visible"><path
         d="m 0.34375,-15.312 h 4.8906 l 4.125,10.391 3.5,-10.391 h 4.8906 l -6.4375,16.766 c -0.64844,1.6953 -1.4023,2.8828 -2.2656,3.5625 -0.86719,0.6875 -2,1.0312 -3.4062,1.0312 H 2.79685 V 2.8289 h 1.5312 c 0.83203,0 1.4375,-0.13672 1.8125,-0.40625 C 6.52336,2.16093 6.82024,1.69218 7.03117,1.01645 L 7.17179,0.59457 Z"
         id="path15065" /></symbol><symbol
       id="g"
       overflow="visible"><path
         d="m 2.5781,-20.406 h 6.6875 l 4.6562,10.922 4.6719,-10.922 h 6.6875 V 0 H 20.2968 V -14.938 L 15.5937,-3.922 H 12.2656 L 7.5625,-14.938 V 0 H 2.5781 Z"
         id="path15068" /></symbol><symbol
       id="r"
       overflow="visible"><path
         d="m 12.422,-21.281 v 3.2188 H 9.7189 c -0.6875,0 -1.1719,0.125 -1.4531,0.375 -0.27344,0.25 -0.40625,0.6875 -0.40625,1.3125 v 1.0625 h 4.1875 v 3.5 H 7.85955 V -2e-4 h -4.8906 v -11.812 h -2.4375 v -3.5 h 2.4375 v -1.0625 c 0,-1.6641 0.46094,-2.8984 1.3906,-3.7031 0.92578,-0.80078 2.3672,-1.2031 4.3281,-1.2031 z"
         id="path15071" /></symbol><symbol
       id="d"
       overflow="visible"><path
         d="m 9.6406,-12.188 c -1.0859,0 -1.9141,0.39062 -2.4844,1.1719 -0.57422,0.78125 -0.85938,1.9062 -0.85938,3.375 0,1.4688 0.28516,2.5938 0.85938,3.375 0.57031,0.77344 1.3984,1.1562 2.4844,1.1562 1.0625,0 1.875,-0.38281 2.4375,-1.1562 0.57031,-0.78125 0.85938,-1.9062 0.85938,-3.375 0,-1.4688 -0.28906,-2.5938 -0.85938,-3.375 -0.5625,-0.78125 -1.375,-1.1719 -2.4375,-1.1719 z m 0,-3.5 c 2.6328,0 4.6914,0.71484 6.1719,2.1406 1.4766,1.418 2.2188,3.3867 2.2188,5.9062 0,2.5117 -0.74219,4.4805 -2.2188,5.9062 C 14.332,-0.317 12.2734,0.39 9.6406,0.39 6.9922,0.39 4.9258,-0.31703 3.4375,-1.735 1.9453,-3.1608 1.2031,-5.1295 1.2031,-7.6412 c 0,-2.5195 0.74219,-4.4883 2.2344,-5.9062 1.4883,-1.4258 3.5547,-2.1406 6.2031,-2.1406 z"
         id="path15074" /></symbol><symbol
       id="q"
       overflow="visible"><path
         d="m 16.547,-12.766 c 0.61328,-0.94531 1.3477,-1.6719 2.2031,-2.1719 0.85156,-0.5 1.7891,-0.75 2.8125,-0.75 1.7578,0 3.0977,0.54688 4.0156,1.6406 0.92578,1.0859 1.3906,2.6562 1.3906,4.7188 V -4e-4 h -4.9219 v -7.9844 -0.35938 c 0.0078,-0.13281 0.01563,-0.32031 0.01563,-0.5625 0,-1.082 -0.16406,-1.8633 -0.48438,-2.3438 -0.3125,-0.48828 -0.82422,-0.73438 -1.5312,-0.73438 -0.92969,0 -1.6484,0.38672 -2.1562,1.1562 -0.51172,0.76172 -0.77344,1.8672 -0.78125,3.3125 v 7.5156 h -4.9219 v -7.9844 c 0,-1.6953 -0.14844,-2.7852 -0.4375,-3.2656 -0.29297,-0.48828 -0.8125,-0.73438 -1.5625,-0.73438 -0.9375,0 -1.6641,0.38672 -2.1719,1.1562 -0.51172,0.76172 -0.76562,1.8594 -0.76562,3.2969 v 7.5312 h -4.9219 v -15.312 h 4.9219 v 2.2344 c 0.60156,-0.86328 1.2891,-1.5156 2.0625,-1.9531 0.78125,-0.4375 1.6406,-0.65625 2.5781,-0.65625 1.0625,0 2,0.25781 2.8125,0.76562 0.8125,0.51172 1.4258,1.2305 1.8438,2.1562 z"
         id="path15077" /></symbol><symbol
       id="p"
       overflow="visible"><path
         d="M 17.75,-9.3281 V 0 h -4.9219 v -7.1094 c 0,-1.3438 -0.03125,-2.2656 -0.09375,-2.7656 -0.0625,-0.5 -0.16797,-0.86719 -0.3125,-1.1094 -0.1875,-0.3125 -0.44922,-0.55469 -0.78125,-0.73438 -0.32422,-0.17578 -0.69531,-0.26562 -1.1094,-0.26562 -1.0234,0 -1.8242,0.39844 -2.4062,1.1875 -0.58594,0.78125 -0.875,1.8711 -0.875,3.2656 V -1e-4 H 2.3594 v -21.281 H 7.25 v 8.2031 c 0.73828,-0.88281 1.5195,-1.5391 2.3438,-1.9688 0.83203,-0.42578 1.75,-0.64062 2.75,-0.64062 1.7695,0 3.1133,0.54688 4.0312,1.6406 0.91406,1.0859 1.375,2.6562 1.375,4.7188 z"
         id="path15080" /></symbol><symbol
       id="o"
       overflow="visible"><path
         d="m 2.5781,-20.406 h 5.875 l 7.4219,14 v -14 h 4.9844 V 0 h -5.875 L 7.5625,-14 V 0 H 2.5781 Z"
         id="path15083" /></symbol><symbol
       id="n"
       overflow="visible"><path
         d="m 2.1875,-5.9688 v -9.3438 h 4.9219 v 1.5312 c 0,0.83594 -0.00781,1.875 -0.015625,3.125 -0.011719,1.25 -0.015625,2.0859 -0.015625,2.5 0,1.2422 0.03125,2.1328 0.09375,2.6719 0.070313,0.54297 0.17969,0.93359 0.32812,1.1719 0.20703,0.32422 0.47266,0.57422 0.79688,0.75 0.32031,0.16797 0.69141,0.25 1.1094,0.25 1.0195,0 1.8203,-0.39062 2.4062,-1.1719 0.58203,-0.78125 0.875,-1.8672 0.875,-3.2656 v -7.5625 h 4.8906 V -6e-4 H 12.6875 V -2.2194 C 11.94531,-1.32096 11.1641,-0.6608 10.3437,-0.235 9.51948,0.17906 8.6093,0.39 7.6093,0.39 5.8476,0.39 4.5038,-0.14906 3.5781,-1.235 2.64841,-2.317 2.1875,-3.8952 2.1875,-5.9694 Z"
         id="path15086" /></symbol><symbol
       id="m"
       overflow="visible"><path
         d="M 17.75,-9.3281 V 0 h -4.9219 v -7.1406 c 0,-1.3203 -0.03125,-2.2344 -0.09375,-2.7344 -0.0625,-0.5 -0.16797,-0.86719 -0.3125,-1.1094 -0.1875,-0.3125 -0.44922,-0.55469 -0.78125,-0.73438 -0.32422,-0.17578 -0.69531,-0.26562 -1.1094,-0.26562 -1.0234,0 -1.8242,0.39844 -2.4062,1.1875 -0.58594,0.78125 -0.875,1.8711 -0.875,3.2656 V -1e-4 H 2.3594 v -15.312 H 7.25 v 2.2344 c 0.73828,-0.88281 1.5195,-1.5391 2.3438,-1.9688 0.83203,-0.42578 1.75,-0.64062 2.75,-0.64062 1.7695,0 3.1133,0.54688 4.0312,1.6406 0.91406,1.0859 1.375,2.6562 1.375,4.7188 z"
         id="path15089" /></symbol><symbol
       id="l"
       overflow="visible"><path
         d="m 2.5781,-20.406 h 8.7344 c 2.5938,0 4.582,0.57812 5.9688,1.7344 1.3945,1.1484 2.0938,2.7891 2.0938,4.9219 0,2.1367 -0.69922,3.7812 -2.0938,4.9375 -1.3867,1.1562 -3.375,1.7344 -5.9688,1.7344 H 7.8281 V 3e-4 h -5.25 z m 5.25,3.8125 v 5.7031 H 10.75 c 1.0195,0 1.8047,-0.25 2.3594,-0.75 0.5625,-0.5 0.84375,-1.2031 0.84375,-2.1094 0,-0.91406 -0.28125,-1.6172 -0.84375,-2.1094 -0.55469,-0.48828 -1.3398,-0.73438 -2.3594,-0.73438 z"
         id="path15092" /></symbol><symbol
       id="k"
       overflow="visible"><path
         d="M 2.3594,-15.312 H 7.25 v 15.031 c 0,2.0508 -0.49609,3.6172 -1.4844,4.7031 -0.98047,1.082 -2.4062,1.625 -4.2812,1.625 H -0.9375 V 2.8283 h 0.85938 c 0.92578,0 1.5625,-0.21094 1.9062,-0.625 0.35156,-0.41797 0.53125,-1.2461 0.53125,-2.4844 z m 0,-5.9688 H 7.25 v 4 H 2.3594 Z"
         id="path15095" /></symbol><symbol
       id="j"
       overflow="visible"><path
         d="m 14.719,-14.828 v 3.9844 c -0.65625,-0.45703 -1.3242,-0.79688 -2,-1.0156 -0.66797,-0.21875 -1.3594,-0.32812 -2.0781,-0.32812 -1.3672,0 -2.4336,0.40234 -3.2031,1.2031 -0.76172,0.79297 -1.1406,1.9062 -1.1406,3.3438 0,1.4297 0.37891,2.543 1.1406,3.3438 0.76953,0.79297 1.8359,1.1875 3.2031,1.1875 0.75781,0 1.4844,-0.10938 2.1719,-0.32812 0.6875,-0.22656 1.3203,-0.56641 1.9062,-1.0156 v 4 c -0.76172,0.28125 -1.5391,0.48828 -2.3281,0.625 -0.78125,0.14453 -1.5742,0.21875 -2.375,0.21875 -2.7617,0 -4.9219,-0.70703 -6.4844,-2.125 -1.5547,-1.4141 -2.3281,-3.3828 -2.3281,-5.9062 0,-2.5312 0.77344,-4.5039 2.3281,-5.9219 1.5625,-1.4141 3.7227,-2.125 6.4844,-2.125 0.80078,0 1.5938,0.07422 2.375,0.21875 0.78125,0.13672 1.5547,0.35156 2.3281,0.64062 z"
         id="path15098" /></symbol><linearGradient
       xlink:href="#linearGradient10494"
       id="linearGradient17301"
       gradientUnits="userSpaceOnUse"
       x1="-1161.9058"
       y1="1387.799"
       x2="-834.91687"
       y2="1193.7246"
       gradientTransform="matrix(0.2870707,0,0,0.2870707,334.83145,-318.89031)" /><symbol
       id="u"
       overflow="visible"><path
         d="m12.844-0.76562c-0.66797 0.34375-1.3594 0.60156-2.0781 0.76562-0.71094 0.17578-1.4531 0.26562-2.2344 0.26562-2.3359 0-4.1836-0.64453-5.5469-1.9375-1.3555-1.3008-2.0312-3.0664-2.0312-5.2969 0-2.2383 0.67578-4.0078 2.0312-5.3125 1.3633-1.3008 3.2109-1.9531 5.5469-1.9531 0.78125 0 1.5234 0.089844 2.2344 0.26562 0.71875 0.17969 1.4102 0.4375 2.0781 0.78125v2.8906c-0.66797-0.45703-1.3281-0.78906-1.9844-1-0.64844-0.21875-1.3281-0.32812-2.0469-0.32812-1.2812 0-2.293 0.41797-3.0312 1.25-0.73047 0.82422-1.0938 1.9609-1.0938 3.4062 0 1.4375 0.36328 2.5703 1.0938 3.3906 0.73828 0.82422 1.75 1.2344 3.0312 1.2344 0.71875 0 1.3984-0.10156 2.0469-0.3125 0.65625-0.21875 1.3164-0.55078 1.9844-1z"
         id="path4124" /></symbol><symbol
       id="c-3"
       overflow="visible"><path
         d="m9.4062-7.625c-0.30469-0.13281-0.60156-0.23438-0.89062-0.29688-0.28125-0.070313-0.57422-0.10938-0.875-0.10938-0.85547 0-1.5156 0.27734-1.9844 0.82812-0.46094 0.55469-0.6875 1.3438-0.6875 2.375v4.8281h-3.3594v-10.484h3.3594v1.7188c0.42578-0.6875 0.91406-1.1875 1.4688-1.5 0.5625-0.3125 1.2344-0.46875 2.0156-0.46875 0.11328 0 0.23438 0.007813 0.35938 0.015625 0.13281 0.011719 0.32812 0.03125 0.57812 0.0625z"
         id="path4127" /></symbol><symbol
       id="a-6"
       overflow="visible"><path
         d="m12.078-5.2656v0.95312h-7.8438c0.082031 0.78125 0.36719 1.3711 0.85938 1.7656 0.48828 0.39844 1.1719 0.59375 2.0469 0.59375 0.69531 0 1.4141-0.10156 2.1562-0.3125 0.73828-0.20703 1.5-0.52344 2.2812-0.95312v2.5781c-0.79297 0.30469-1.5859 0.52734-2.375 0.67188-0.79297 0.15625-1.5859 0.23438-2.375 0.23438-1.8984 0-3.3711-0.47656-4.4219-1.4375-1.0547-0.96875-1.5781-2.3203-1.5781-4.0625 0-1.707 0.51562-3.0508 1.5469-4.0312 1.0312-0.97656 2.4531-1.4688 4.2656-1.4688 1.6445 0 2.9609 0.49609 3.9531 1.4844 0.98828 0.99219 1.4844 2.3203 1.4844 3.9844zm-3.4531-1.125c0-0.63281-0.1875-1.1445-0.5625-1.5312-0.36719-0.39453-0.84375-0.59375-1.4375-0.59375-0.65625 0-1.1875 0.18359-1.5938 0.54688-0.40625 0.36719-0.65625 0.89062-0.75 1.5781z"
         id="path4130" /></symbol><symbol
       id="f-7"
       overflow="visible"><path
         d="m6.3125-4.7188c-0.69922 0-1.2266 0.12109-1.5781 0.35938-0.35547 0.24219-0.53125 0.58984-0.53125 1.0469 0 0.42969 0.14062 0.76172 0.42188 1 0.28906 0.24219 0.6875 0.35938 1.1875 0.35938 0.63281 0 1.1641-0.22266 1.5938-0.67188 0.42578-0.45703 0.64062-1.0234 0.64062-1.7031v-0.39062zm5.125-1.2656v5.9844h-3.3906v-1.5469c-0.44922 0.63672-0.95312 1.1016-1.5156 1.3906-0.5625 0.28125-1.2461 0.42188-2.0469 0.42188-1.0859 0-1.9648-0.3125-2.6406-0.9375-0.67969-0.63281-1.0156-1.457-1.0156-2.4688 0-1.2266 0.42188-2.1289 1.2656-2.7031 0.84375-0.58203 2.1719-0.875 3.9844-0.875h1.9688v-0.25c0-0.53125-0.21094-0.92188-0.625-1.1719-0.41797-0.25-1.0703-0.375-1.9531-0.375-0.71875 0-1.3906 0.074219-2.0156 0.21875-0.61719 0.14844-1.1875 0.36719-1.7188 0.65625v-2.5625c0.71875-0.17578 1.4375-0.30469 2.1562-0.39062 0.72656-0.09375 1.457-0.14062 2.1875-0.14062 1.8828 0 3.25 0.375 4.0938 1.125 0.84375 0.74219 1.2656 1.9492 1.2656 3.625z"
         id="path4133" /></symbol><symbol
       id="b-5"
       overflow="visible"><path
         d="m5.2656-13.469v2.9844h3.4531v2.3906h-3.4531v4.4531c0 0.49219 0.09375 0.82422 0.28125 1 0.19531 0.16797 0.58594 0.25 1.1719 0.25h1.7188v2.3906h-2.875c-1.3242 0-2.2617-0.27344-2.8125-0.82812-0.55469-0.55078-0.82812-1.4883-0.82812-2.8125v-4.4531h-1.6719v-2.3906h1.6719v-2.9844z"
         id="path4136" /></symbol><symbol
       id="j-3"
       overflow="visible"><path
         d="m8.75-8.9531v-5.6094h3.3594v14.562h-3.3594v-1.5156c-0.46875 0.61719-0.98047 1.0703-1.5312 1.3594-0.55469 0.28125-1.1953 0.42188-1.9219 0.42188-1.3047 0-2.3711-0.50781-3.2031-1.5312-0.82422-1.0312-1.2344-2.3516-1.2344-3.9688 0-1.6133 0.41016-2.9297 1.2344-3.9531 0.83203-1.0312 1.8984-1.5469 3.2031-1.5469 0.71875 0 1.3516 0.14844 1.9062 0.4375 0.5625 0.29297 1.0781 0.74219 1.5469 1.3438zm-2.2188 6.7969c0.71875 0 1.2656-0.25781 1.6406-0.78125 0.38281-0.53125 0.57812-1.2969 0.57812-2.2969s-0.19531-1.7578-0.57812-2.2812c-0.375-0.51953-0.92188-0.78125-1.6406-0.78125-0.71094 0-1.2578 0.26172-1.6406 0.78125-0.375 0.52344-0.5625 1.2812-0.5625 2.2812s0.1875 1.7656 0.5625 2.2969c0.38281 0.52344 0.92969 0.78125 1.6406 0.78125z"
         id="path4139" /></symbol><symbol
       id="i-5"
       overflow="visible"><path
         d="m7.1875-2.1562c0.71875 0 1.2656-0.25781 1.6406-0.78125 0.38281-0.53125 0.57812-1.2969 0.57812-2.2969s-0.19531-1.7578-0.57812-2.2812c-0.375-0.51953-0.92188-0.78125-1.6406-0.78125s-1.2734 0.26562-1.6562 0.79688c-0.375 0.52344-0.5625 1.2773-0.5625 2.2656 0 0.99219 0.1875 1.75 0.5625 2.2812 0.38281 0.53125 0.9375 0.79688 1.6562 0.79688zm-2.2188-6.7969c0.45703-0.60156 0.96875-1.0508 1.5312-1.3438 0.5625-0.28906 1.207-0.4375 1.9375-0.4375 1.2891 0 2.3477 0.51562 3.1719 1.5469 0.83203 1.0234 1.25 2.3398 1.25 3.9531 0 1.6172-0.41797 2.9375-1.25 3.9688-0.82422 1.0234-1.8828 1.5312-3.1719 1.5312-0.73047 0-1.375-0.14062-1.9375-0.42188-0.5625-0.28906-1.0742-0.74219-1.5312-1.3594v1.5156h-3.3594v-14.562h3.3594z"
         id="path4142" /></symbol><symbol
       id="e-6"
       overflow="visible"><path
         d="m0.23438-10.484h3.3438l2.8281 7.1094 2.3906-7.1094h3.3594l-4.4219 11.484c-0.4375 1.1641-0.95312 1.9766-1.5469 2.4375-0.58594 0.46875-1.3594 0.70312-2.3281 0.70312h-1.9375v-2.2031h1.0469c0.5625 0 0.97266-0.09375 1.2344-0.28125 0.25781-0.17969 0.46094-0.5 0.60938-0.96875l0.09375-0.28125z"
         id="path4145" /></symbol><symbol
       id="h-2"
       overflow="visible"><path
         d="m10.234-2.5469h-5.625l-0.89062 2.5469h-3.625l5.1719-13.969h4.2969l5.1875 13.969h-3.625zm-4.7344-2.5938h3.8281l-1.9062-5.5625z"
         id="path4148" /></symbol><symbol
       id="t"
       overflow="visible"><path
         d="m1.6094-10.484h3.3594v10.484h-3.3594zm0-4.0781h3.3594v2.7344h-3.3594z"
         id="path4151" /></symbol><symbol
       id="s-9"
       overflow="visible"><path
         d="m9.7969-10.156v2.5469c-0.71875-0.30078-1.4141-0.52344-2.0781-0.67188-0.66797-0.15625-1.2969-0.23438-1.8906-0.23438-0.63672 0-1.1094 0.085937-1.4219 0.25-0.30469 0.15625-0.45312 0.40234-0.45312 0.73438 0 0.26172 0.11328 0.46484 0.34375 0.60938 0.23828 0.14844 0.66016 0.25781 1.2656 0.32812l0.59375 0.078125c1.707 0.21875 2.8594 0.57812 3.4531 1.0781s0.89062 1.2812 0.89062 2.3438c0 1.125-0.41406 1.9688-1.2344 2.5312-0.82422 0.55469-2.0547 0.82812-3.6875 0.82812-0.6875 0-1.4023-0.058594-2.1406-0.17188-0.74219-0.10156-1.5-0.26562-2.2812-0.48438v-2.5469c0.66406 0.33594 1.3477 0.58594 2.0469 0.75 0.70703 0.15625 1.4219 0.23438 2.1406 0.23438 0.65625 0 1.1484-0.085937 1.4844-0.26562 0.33203-0.1875 0.5-0.45703 0.5-0.8125 0-0.30078-0.11719-0.52344-0.34375-0.67188-0.23047-0.14453-0.6875-0.25781-1.375-0.34375l-0.57812-0.078125c-1.4922-0.1875-2.5391-0.53125-3.1406-1.0312-0.59375-0.50781-0.89062-1.2734-0.89062-2.2969 0-1.1133 0.37891-1.9375 1.1406-2.4688 0.75781-0.53906 1.9258-0.8125 3.5-0.8125 0.61328 0 1.2578 0.046875 1.9375 0.14062 0.6875 0.09375 1.4258 0.24219 2.2188 0.4375z"
         id="path4154" /></symbol><symbol
       id="g-1"
       overflow="visible"><path
         d="m12.156-6.3906v6.3906h-3.375v-4.875c0-0.91406-0.023438-1.5469-0.0625-1.8906-0.042969-0.34375-0.10938-0.59375-0.20312-0.75-0.13672-0.21875-0.32031-0.38281-0.54688-0.5-0.21875-0.125-0.47656-0.1875-0.76562-0.1875-0.69922 0-1.2461 0.27344-1.6406 0.8125-0.39844 0.53125-0.59375 1.2773-0.59375 2.2344v5.1562h-3.3594v-14.562h3.3594v5.6094c0.5-0.60156 1.0312-1.0508 1.5938-1.3438 0.57031-0.28906 1.2031-0.4375 1.8906-0.4375 1.207 0 2.125 0.37109 2.75 1.1094 0.63281 0.74219 0.95312 1.8203 0.95312 3.2344z"
         id="path4157" /></symbol><symbol
       id="r-2"
       overflow="visible"><path
         d="m8.5156-14.562v2.2031h-1.8594c-0.48047 0-0.8125 0.089844-1 0.26562-0.1875 0.16797-0.28125 0.46094-0.28125 0.875v0.73438h2.875v2.3906h-2.875v8.0938h-3.3438v-8.0938h-1.6719v-2.3906h1.6719v-0.73438c0-1.1328 0.31641-1.9727 0.95312-2.5156 0.63281-0.55078 1.6172-0.82812 2.9531-0.82812z"
         id="path4160" /></symbol><symbol
       id="d-7"
       overflow="visible"><path
         d="m6.5938-8.3438c-0.74219 0-1.3086 0.27344-1.7031 0.8125-0.38672 0.53125-0.57812 1.2969-0.57812 2.2969 0 1.0117 0.19141 1.7812 0.57812 2.3125 0.39453 0.53125 0.96094 0.79688 1.7031 0.79688 0.72656 0 1.2852-0.26562 1.6719-0.79688 0.39453-0.53125 0.59375-1.3008 0.59375-2.3125 0-1-0.19922-1.7656-0.59375-2.2969-0.38672-0.53906-0.94531-0.8125-1.6719-0.8125zm0-2.3906c1.8125 0 3.2227 0.49219 4.2344 1.4688 1.0078 0.96875 1.5156 2.3125 1.5156 4.0312s-0.50781 3.0703-1.5156 4.0469c-1.0117 0.96875-2.4219 1.4531-4.2344 1.4531-1.8047 0-3.2148-0.48438-4.2344-1.4531-1.0234-0.97656-1.5312-2.3281-1.5312-4.0469s0.50781-3.0625 1.5312-4.0312c1.0195-0.97656 2.4297-1.4688 4.2344-1.4688z"
         id="path4163" /></symbol><symbol
       id="q-0"
       overflow="visible"><path
         d="m11.328-8.75c0.42578-0.64453 0.92969-1.1328 1.5156-1.4688 0.58203-0.34375 1.2227-0.51562 1.9219-0.51562 1.1953 0 2.1094 0.37109 2.7344 1.1094 0.63281 0.74219 0.95312 1.8203 0.95312 3.2344v6.3906h-3.3594v-5.4688-0.25c0.007812-0.082031 0.015625-0.20703 0.015625-0.375 0-0.73828-0.10938-1.2734-0.32812-1.6094-0.21875-0.33203-0.57422-0.5-1.0625-0.5-0.63672 0-1.125 0.26172-1.4688 0.78125-0.34375 0.52344-0.52344 1.2773-0.53125 2.2656v5.1562h-3.375v-5.4688c0-1.1562-0.10547-1.8984-0.3125-2.2344-0.19922-0.33203-0.55469-0.5-1.0625-0.5-0.63672 0-1.1328 0.26562-1.4844 0.79688-0.34375 0.52344-0.51562 1.2734-0.51562 2.25v5.1562h-3.375v-10.484h3.375v1.5312c0.40625-0.59375 0.875-1.0352 1.4062-1.3281 0.53906-0.30078 1.1289-0.45312 1.7656-0.45312 0.72656 0 1.3672 0.17969 1.9219 0.53125 0.55078 0.34375 0.97266 0.82812 1.2656 1.4531z"
         id="path4166" /></symbol><symbol
       id="p-9"
       overflow="visible"><path
         d="m1.7656-13.969h4.0156l5.0938 9.5781v-9.5781h3.4062v13.969h-4.0156l-5.0938-9.5938v9.5938h-3.4062z"
         id="path4169" /></symbol><symbol
       id="o-3"
       overflow="visible"><path
         d="m1.5-4.0781v-6.4062h3.375v1.0469c0 0.57422-0.007812 1.2891-0.015625 2.1406-0.011719 0.85547-0.015625 1.4297-0.015625 1.7188 0 0.84375 0.019531 1.4531 0.0625 1.8281 0.050781 0.36719 0.12891 0.63281 0.23438 0.79688 0.13281 0.21875 0.3125 0.39062 0.53125 0.51562 0.22656 0.11719 0.48438 0.17188 0.76562 0.17188 0.69531 0 1.2422-0.26562 1.6406-0.79688 0.40625-0.53906 0.60938-1.2891 0.60938-2.25v-5.1719h3.3438v10.484h-3.3438v-1.5156c-0.51172 0.61719-1.0469 1.0703-1.6094 1.3594-0.5625 0.28125-1.1836 0.42188-1.8594 0.42188-1.2188 0-2.1484-0.36719-2.7812-1.1094-0.625-0.73828-0.9375-1.8164-0.9375-3.2344z"
         id="path4172" /></symbol><symbol
       id="n-6"
       overflow="visible"><path
         d="m12.156-6.3906v6.3906h-3.375v-4.8906c0-0.90625-0.023438-1.5312-0.0625-1.875-0.042969-0.34375-0.10938-0.59375-0.20312-0.75-0.13672-0.21875-0.32031-0.38281-0.54688-0.5-0.21875-0.125-0.47656-0.1875-0.76562-0.1875-0.69922 0-1.2461 0.27344-1.6406 0.8125-0.39844 0.53125-0.59375 1.2773-0.59375 2.2344v5.1562h-3.3594v-10.484h3.3594v1.5312c0.5-0.60156 1.0312-1.0508 1.5938-1.3438 0.57031-0.28906 1.2031-0.4375 1.8906-0.4375 1.207 0 2.125 0.37109 2.75 1.1094 0.63281 0.74219 0.95312 1.8203 0.95312 3.2344z"
         id="path4175" /></symbol><symbol
       id="m-0"
       overflow="visible"><path
         d="m1.7656-13.969h5.9688c1.7812 0 3.1445 0.39844 4.0938 1.1875 0.95703 0.78125 1.4375 1.9023 1.4375 3.3594 0 1.4688-0.48047 2.6016-1.4375 3.3906-0.94922 0.79297-2.3125 1.1875-4.0938 1.1875h-2.375v4.8438h-3.5938zm3.5938 2.6094v3.9062h2c0.69531 0 1.2344-0.17188 1.6094-0.51562 0.38281-0.34375 0.57812-0.82812 0.57812-1.4531s-0.19531-1.1016-0.57812-1.4375c-0.375-0.33203-0.91406-0.5-1.6094-0.5z"
         id="path4178" /></symbol><symbol
       id="l-6"
       overflow="visible"><path
         d="m1.6094-10.484h3.3594v10.297c0 1.4062-0.33984 2.4766-1.0156 3.2188-0.67969 0.73828-1.6562 1.1094-2.9375 1.1094h-1.6562v-2.2031h0.57812c0.64453 0 1.082-0.14844 1.3125-0.4375 0.23828-0.28125 0.35938-0.84375 0.35938-1.6875zm0-4.0781h3.3594v2.7344h-3.3594z"
         id="path4181" /></symbol><symbol
       id="k-2"
       overflow="visible"><path
         d="m10.078-10.156v2.7344c-0.44922-0.3125-0.90625-0.53906-1.375-0.6875-0.46094-0.15625-0.93359-0.23438-1.4219-0.23438-0.9375 0-1.668 0.27734-2.1875 0.82812-0.52344 0.54297-0.78125 1.3047-0.78125 2.2812 0 0.98047 0.25781 1.7461 0.78125 2.2969 0.51953 0.54297 1.25 0.8125 2.1875 0.8125 0.51953 0 1.0156-0.078125 1.4844-0.23438 0.47656-0.15625 0.91406-0.38281 1.3125-0.6875v2.7344c-0.52344 0.19922-1.0547 0.34375-1.5938 0.4375-0.54297 0.09375-1.0859 0.14062-1.625 0.14062-1.8867 0-3.3672-0.48438-4.4375-1.4531-1.0625-0.96875-1.5938-2.3164-1.5938-4.0469 0-1.7266 0.53125-3.0781 1.5938-4.0469 1.0703-0.96875 2.5508-1.4531 4.4375-1.4531 0.55078 0 1.0938 0.046875 1.625 0.14062s1.0625 0.24219 1.5938 0.4375z"
         id="path4184" /></symbol><symbol
       id="t-6"
       overflow="visible"><path
         d="m8.7656-0.53125c-0.46094 0.24219-0.93359 0.41797-1.4219 0.53125-0.49219 0.125-1 0.1875-1.5312 0.1875-1.5859 0-2.8398-0.44141-3.7656-1.3281-0.92969-0.89453-1.3906-2.0977-1.3906-3.6094 0-1.5312 0.46094-2.7383 1.3906-3.625 0.92578-0.88281 2.1797-1.3281 3.7656-1.3281 0.53125 0 1.0391 0.0625 1.5312 0.1875 0.48828 0.11719 0.96094 0.28906 1.4219 0.51562v1.9688c-0.46094-0.30078-0.91406-0.52344-1.3594-0.67188-0.4375-0.14453-0.90234-0.21875-1.3906-0.21875-0.875 0-1.5703 0.28125-2.0781 0.84375-0.5 0.5625-0.75 1.3398-0.75 2.3281 0 0.98047 0.25 1.75 0.75 2.3125 0.50781 0.5625 1.2031 0.84375 2.0781 0.84375 0.48828 0 0.95312-0.070312 1.3906-0.21875 0.44531-0.14453 0.89844-0.375 1.3594-0.6875z"
         id="path4340" /></symbol><symbol
       id="c-1"
       overflow="visible"><path
         d="m6.4062-5.2031c-0.19922-0.09375-0.39844-0.16016-0.59375-0.20312-0.19922-0.050781-0.39844-0.078125-0.59375-0.078125-0.58594 0-1.0391 0.19531-1.3594 0.57812-0.3125 0.375-0.46875 0.91406-0.46875 1.6094v3.2969h-2.2969v-7.1562h2.2969v1.1719c0.28906-0.45703 0.625-0.79688 1-1.0156 0.38281-0.21875 0.84375-0.32812 1.375-0.32812 0.070313 0 0.15625 0.007813 0.25 0.015625 0.09375 0 0.22266 0.015625 0.39062 0.046875z"
         id="path4343" /></symbol><symbol
       id="a-8"
       overflow="visible"><path
         d="m8.2344-3.5938v0.65625h-5.3438c0.050781 0.53125 0.24219 0.93359 0.57812 1.2031 0.33203 0.27344 0.79688 0.40625 1.3906 0.40625 0.48828 0 0.98438-0.070313 1.4844-0.21875 0.5-0.14453 1.0195-0.36328 1.5625-0.65625v1.7656c-0.54297 0.21094-1.0859 0.36719-1.625 0.46875-0.54297 0.10156-1.0859 0.15625-1.625 0.15625-1.293 0-2.2969-0.32812-3.0156-0.98438s-1.0781-1.5781-1.0781-2.7656c0-1.1641 0.34766-2.082 1.0469-2.75 0.70703-0.67578 1.6797-1.0156 2.9219-1.0156 1.125 0 2.0195 0.33984 2.6875 1.0156 0.67578 0.67969 1.0156 1.5859 1.0156 2.7188zm-2.3438-0.76562c0-0.42578-0.13281-0.77344-0.39062-1.0469-0.25-0.26953-0.57812-0.40625-0.98438-0.40625-0.44922 0-0.8125 0.125-1.0938 0.375-0.27344 0.25-0.4375 0.60938-0.5 1.0781z"
         id="path4346" /></symbol><symbol
       id="e-7"
       overflow="visible"><path
         d="m4.2969-3.2188c-0.46875 0-0.82422 0.085938-1.0625 0.25-0.24219 0.15625-0.35938 0.39062-0.35938 0.70312 0 0.29297 0.09375 0.52344 0.28125 0.6875 0.19531 0.16797 0.46875 0.25 0.8125 0.25 0.42578 0 0.78516-0.15625 1.0781-0.46875 0.28906-0.3125 0.4375-0.69531 0.4375-1.1562v-0.26562zm3.5-0.85938v4.0781h-2.3125v-1.0625c-0.30469 0.4375-0.64844 0.75781-1.0312 0.95312-0.38672 0.19531-0.85156 0.29688-1.3906 0.29688-0.74219 0-1.3438-0.21094-1.8125-0.64062-0.46094-0.4375-0.6875-1-0.6875-1.6875 0-0.84375 0.28516-1.457 0.85938-1.8438 0.58203-0.39453 1.4883-0.59375 2.7188-0.59375h1.3438v-0.17188c0-0.36328-0.14062-0.62891-0.42188-0.79688-0.28125-0.17578-0.72656-0.26562-1.3281-0.26562-0.49219 0-0.94922 0.054688-1.375 0.15625-0.41797 0.09375-0.80859 0.24219-1.1719 0.4375v-1.7344c0.48828-0.125 0.97656-0.21875 1.4688-0.28125 0.5-0.0625 0.99219-0.09375 1.4844-0.09375 1.2891 0 2.2227 0.25781 2.7969 0.76562 0.57031 0.51172 0.85938 1.3398 0.85938 2.4844z"
         id="path4349" /></symbol><symbol
       id="b-9"
       overflow="visible"><path
         d="m3.5938-9.1875v2.0312h2.3594v1.6406h-2.3594v3.0312c0 0.33594 0.0625 0.55859 0.1875 0.67188 0.13281 0.11719 0.39844 0.17188 0.79688 0.17188h1.1719v1.6406h-1.9531c-0.90625 0-1.5469-0.1875-1.9219-0.5625s-0.5625-1.0156-0.5625-1.9219v-3.0312h-1.1406v-1.6406h1.1406v-2.0312z"
         id="path4352" /></symbol><symbol
       id="k-20"
       overflow="visible"><path
         d="m5.9688-6.1094v-3.8281h2.2969v9.9375h-2.2969v-1.0312c-0.32422 0.41797-0.67188 0.72656-1.0469 0.92188-0.375 0.19531-0.8125 0.29688-1.3125 0.29688-0.88672 0-1.6094-0.34766-2.1719-1.0469-0.5625-0.70703-0.84375-1.6094-0.84375-2.7031 0-1.1016 0.28125-2.0039 0.84375-2.7031 0.5625-0.70703 1.2852-1.0625 2.1719-1.0625 0.48828 0 0.92188 0.10156 1.2969 0.29688 0.38281 0.19922 0.73828 0.50781 1.0625 0.92188zm-1.5156 4.6406c0.48828 0 0.86328-0.17578 1.125-0.53125 0.25781-0.36328 0.39062-0.88281 0.39062-1.5625 0-0.6875-0.13281-1.207-0.39062-1.5625-0.26172-0.36328-0.63672-0.54688-1.125-0.54688-0.48047 0-0.85156 0.18359-1.1094 0.54688-0.26172 0.35547-0.39062 0.875-0.39062 1.5625 0 0.67969 0.12891 1.1992 0.39062 1.5625 0.25781 0.35547 0.62891 0.53125 1.1094 0.53125z"
         id="path4355" /></symbol><symbol
       id="j-2"
       overflow="visible"><path
         d="m4.9062-1.4688c0.48828 0 0.85938-0.17578 1.1094-0.53125 0.25781-0.36328 0.39062-0.88281 0.39062-1.5625 0-0.6875-0.13281-1.207-0.39062-1.5625-0.25-0.36328-0.62109-0.54688-1.1094-0.54688-0.49219 0-0.86719 0.18359-1.125 0.54688-0.26172 0.36719-0.39062 0.88672-0.39062 1.5625 0 0.67969 0.12891 1.1992 0.39062 1.5625 0.25781 0.35547 0.63281 0.53125 1.125 0.53125zm-1.5156-4.6406c0.3125-0.41406 0.65625-0.72266 1.0312-0.92188 0.38281-0.19531 0.82812-0.29688 1.3281-0.29688 0.88281 0 1.6094 0.35547 2.1719 1.0625 0.57031 0.69922 0.85938 1.6016 0.85938 2.7031 0 1.0938-0.28906 1.9961-0.85938 2.7031-0.5625 0.69922-1.2891 1.0469-2.1719 1.0469-0.5 0-0.94531-0.10156-1.3281-0.29688-0.375-0.19531-0.71875-0.50391-1.0312-0.92188v1.0312h-2.2969v-9.9375h2.2969z"
         id="path4358" /></symbol><symbol
       id="i-3"
       overflow="visible"><path
         d="m0.15625-7.1562h2.2969l1.9219 4.8594 1.625-4.8594h2.2812l-3 7.8281c-0.30469 0.80078-0.65625 1.3594-1.0625 1.6719-0.39844 0.32031-0.92969 0.48438-1.5938 0.48438h-1.3125v-1.5h0.71875c0.38281 0 0.66406-0.0625 0.84375-0.1875 0.17578-0.125 0.3125-0.35156 0.40625-0.67188l0.0625-0.1875z"
         id="path4361" /></symbol><symbol
       id="h-7"
       overflow="visible"><path
         d="m1.0938-7.1562h2.2969v7.1562h-2.2969zm0-2.7812h2.2969v1.8594h-2.2969z"
         id="path4364" /></symbol><symbol
       id="g-5"
       overflow="visible"><path
         d="m1.0938-7.1562h2.2969v7.0312c0 0.95703-0.23438 1.6875-0.70312 2.1875-0.46094 0.50781-1.1211 0.76562-1.9844 0.76562h-1.1406v-1.5h0.40625c0.42578 0 0.71875-0.10156 0.875-0.29688 0.16406-0.19922 0.25-0.58594 0.25-1.1562zm0-2.7812h2.2969v1.8594h-2.2969z"
         id="path4367" /></symbol><symbol
       id="f-9"
       overflow="visible"><path
         d="m8.2812-4.3594v4.3594h-2.2969v-3.3281c0-0.625-0.015625-1.0508-0.046875-1.2812-0.023438-0.23828-0.0625-0.41016-0.125-0.51562-0.09375-0.14453-0.21875-0.25781-0.375-0.34375-0.15625-0.082031-0.32812-0.125-0.51562-0.125-0.48047 0-0.85547 0.18359-1.125 0.54688-0.27344 0.36719-0.40625 0.875-0.40625 1.5312v3.5156h-2.2969v-7.1562h2.2969v1.0469c0.34375-0.41406 0.70703-0.72266 1.0938-0.92188 0.38281-0.19531 0.8125-0.29688 1.2812-0.29688 0.82031 0 1.4453 0.25781 1.875 0.76562 0.42578 0.5 0.64062 1.2344 0.64062 2.2031z"
         id="path4370" /></symbol><symbol
       id="s-2"
       overflow="visible"><path
         d="m1.0938-9.9375h2.2969v5.4062l2.625-2.625h2.6562l-3.5 3.2812 3.7812 3.875h-2.7812l-2.7812-2.9844v2.9844h-2.2969z"
         id="path4373" /></symbol><symbol
       id="r-28"
       overflow="visible"><path
         d="m5.8125-9.9375v1.5h-1.2656c-0.32422 0-0.55469 0.0625-0.6875 0.1875-0.125 0.11719-0.1875 0.3125-0.1875 0.59375v0.5h1.9531v1.6406h-1.9531v5.5156h-2.2812v-5.5156h-1.1406v-1.6406h1.1406v-0.5c0-0.76953 0.21094-1.3438 0.64062-1.7188 0.4375-0.375 1.1133-0.5625 2.0312-0.5625z"
         id="path4376" /></symbol><symbol
       id="d-9"
       overflow="visible"><path
         d="m4.5-5.6875c-0.51172 0-0.90234 0.18359-1.1719 0.54688-0.26172 0.36719-0.39062 0.89062-0.39062 1.5781 0 0.67969 0.12891 1.1992 0.39062 1.5625 0.26953 0.36719 0.66016 0.54688 1.1719 0.54688 0.5 0 0.87891-0.17969 1.1406-0.54688 0.26953-0.36328 0.40625-0.88281 0.40625-1.5625 0-0.6875-0.13672-1.2109-0.40625-1.5781-0.26172-0.36328-0.64062-0.54688-1.1406-0.54688zm0-1.6406c1.2266 0 2.1875 0.33594 2.875 1 0.69531 0.66797 1.0469 1.5898 1.0469 2.7656 0 1.168-0.35156 2.0859-1.0469 2.75-0.6875 0.66797-1.6484 1-2.875 1-1.2305 0-2.1953-0.33203-2.8906-1-0.69922-0.66406-1.0469-1.582-1.0469-2.75 0-1.1758 0.34766-2.0977 1.0469-2.7656 0.69531-0.66406 1.6602-1 2.8906-1z"
         id="path4379" /></symbol><symbol
       id="q-7"
       overflow="visible"><path
         d="m7.7344-5.9688c0.28125-0.4375 0.61719-0.76953 1.0156-1 0.40625-0.23828 0.84766-0.35938 1.3281-0.35938 0.8125 0 1.4297 0.25781 1.8594 0.76562 0.4375 0.5 0.65625 1.2344 0.65625 2.2031v4.3594h-2.2969v-3.7344-0.15625c0.007813-0.0625 0.015625-0.14844 0.015625-0.26562 0-0.50781-0.078125-0.875-0.23438-1.0938-0.14844-0.22656-0.38672-0.34375-0.71875-0.34375-0.4375 0-0.77734 0.17969-1.0156 0.53125-0.23047 0.35547-0.35156 0.87109-0.35938 1.5469v3.5156h-2.2969v-3.7344c0-0.78906-0.070312-1.2969-0.20312-1.5156-0.13672-0.22656-0.38281-0.34375-0.73438-0.34375-0.4375 0-0.77734 0.18359-1.0156 0.54688-0.23047 0.35547-0.34375 0.86719-0.34375 1.5312v3.5156h-2.3125v-7.1562h2.3125v1.0469c0.28125-0.40625 0.59766-0.70703 0.95312-0.90625 0.36328-0.20703 0.76953-0.3125 1.2188-0.3125 0.48828 0 0.92188 0.12109 1.2969 0.35938 0.38281 0.24219 0.67578 0.57422 0.875 1z"
         id="path4382" /></symbol><symbol
       id="p-3"
       overflow="visible"><path
         d="m8.2812-4.3594v4.3594h-2.2969v-3.3281c0-0.625-0.015625-1.0508-0.046875-1.2812-0.023438-0.23828-0.0625-0.41016-0.125-0.51562-0.09375-0.14453-0.21875-0.25781-0.375-0.34375-0.15625-0.082031-0.32812-0.125-0.51562-0.125-0.48047 0-0.85547 0.18359-1.125 0.54688-0.27344 0.36719-0.40625 0.875-0.40625 1.5312v3.5156h-2.2969v-9.9375h2.2969v3.8281c0.34375-0.41406 0.70703-0.72266 1.0938-0.92188 0.38281-0.19531 0.8125-0.29688 1.2812-0.29688 0.82031 0 1.4453 0.25781 1.875 0.76562 0.42578 0.5 0.64062 1.2344 0.64062 2.2031z"
         id="path4385" /></symbol><symbol
       id="o-6"
       overflow="visible"><path
         d="m1.2031-9.5312h2.75l3.4531 6.5312v-6.5312h2.3438v9.5312h-2.75l-3.4688-6.5469v6.5469h-2.3281z"
         id="path4388" /></symbol><symbol
       id="n-1"
       overflow="visible"><path
         d="m1.0156-2.7812v-4.375h2.3125v0.71875c0 0.38672-0.007813 0.875-0.015625 1.4688v1.1562c0 0.58594 0.007812 1 0.03125 1.25 0.03125 0.25 0.082031 0.43359 0.15625 0.54688 0.09375 0.15625 0.21094 0.27734 0.35938 0.35938 0.15625 0.074219 0.33203 0.10938 0.53125 0.10938 0.47656 0 0.85156-0.17969 1.125-0.54688 0.26953-0.36328 0.40625-0.875 0.40625-1.5312v-3.5312h2.2969v7.1562h-2.2969v-1.0312c-0.34375 0.41797-0.71094 0.72656-1.0938 0.92188-0.38672 0.19531-0.80859 0.29688-1.2656 0.29688-0.83594 0-1.4688-0.25-1.9062-0.75-0.42969-0.50781-0.64062-1.25-0.64062-2.2188z"
         id="path4391" /></symbol><symbol
       id="m-2"
       overflow="visible"><path
         d="m1.2031-9.5312h4.0781c1.207 0 2.1328 0.27344 2.7812 0.8125 0.65625 0.53125 0.98438 1.2969 0.98438 2.2969s-0.32812 1.7734-0.98438 2.3125c-0.64844 0.53125-1.5742 0.79688-2.7812 0.79688h-1.625v3.3125h-2.4531zm2.4531 1.7812v2.6562h1.3594c0.47656 0 0.84766-0.11328 1.1094-0.34375 0.25781-0.22656 0.39062-0.55469 0.39062-0.98438 0-0.42578-0.13281-0.75391-0.39062-0.98438-0.26172-0.22656-0.63281-0.34375-1.1094-0.34375z"
         id="path4394" /></symbol><symbol
       id="l-9"
       overflow="visible"><path
         d="m6.875-6.9219v1.8594c-0.3125-0.21875-0.625-0.375-0.9375-0.46875-0.3125-0.10156-0.63672-0.15625-0.96875-0.15625-0.63672 0-1.1367 0.1875-1.5 0.5625-0.35547 0.36719-0.53125 0.88672-0.53125 1.5625 0 0.66797 0.17578 1.1875 0.53125 1.5625 0.36328 0.36719 0.86328 0.54688 1.5 0.54688 0.35156 0 0.69141-0.050781 1.0156-0.15625 0.32031-0.10156 0.61719-0.25781 0.89062-0.46875v1.875c-0.35547 0.125-0.71875 0.21875-1.0938 0.28125-0.36719 0.070313-0.73047 0.10938-1.0938 0.10938-1.293 0-2.3047-0.32812-3.0312-0.98438-0.73047-0.66406-1.0938-1.5859-1.0938-2.7656 0-1.1875 0.36328-2.1094 1.0938-2.7656 0.72656-0.66406 1.7383-1 3.0312-1 0.375 0 0.73828 0.039063 1.0938 0.10938 0.36328 0.0625 0.72656 0.16406 1.0938 0.29688z"
         id="path4397" /></symbol><symbol
       id="w"
       overflow="visible"><path
         d="m3.6562-0.21875c-0.1875 0.09375-0.38672 0.16797-0.59375 0.21875-0.19922 0.050781-0.40625 0.078125-0.625 0.078125-0.66797 0-1.1992-0.17969-1.5938-0.54688-0.38672-0.375-0.57812-0.87891-0.57812-1.5156 0-0.64453 0.19141-1.1484 0.57812-1.5156 0.39453-0.375 0.92578-0.5625 1.5938-0.5625 0.21875 0 0.42578 0.027344 0.625 0.078125 0.20703 0.054687 0.40625 0.125 0.59375 0.21875v0.82812c-0.1875-0.125-0.375-0.21875-0.5625-0.28125-0.17969-0.0625-0.37109-0.09375-0.57812-0.09375-0.36719 0-0.65625 0.12109-0.875 0.35938-0.21094 0.23047-0.3125 0.55469-0.3125 0.96875 0 0.40625 0.10156 0.73047 0.3125 0.96875 0.21875 0.23047 0.50781 0.34375 0.875 0.34375 0.20703 0 0.39844-0.023437 0.57812-0.078125 0.1875-0.0625 0.375-0.16016 0.5625-0.29688z"
         id="path4551" /></symbol><symbol
       id="d-3"
       overflow="visible"><path
         d="m2.6875-2.1719c-0.085938-0.039063-0.16797-0.070313-0.25-0.09375-0.085938-0.019531-0.16797-0.03125-0.25-0.03125-0.25 0-0.44531 0.085937-0.57812 0.25-0.125 0.15625-0.1875 0.38281-0.1875 0.67188v1.375h-0.96875v-2.9844h0.96875v0.48438c0.11328-0.19531 0.25-0.33594 0.40625-0.42188 0.16406-0.09375 0.35938-0.14062 0.57812-0.14062h0.10938c0.039063 0 0.09375 0.007812 0.15625 0.015625z"
         id="path4554" /></symbol><symbol
       id="a-1"
       overflow="visible"><path
         d="m3.4375-1.5v0.26562h-2.2344c0.03125 0.23047 0.11328 0.40234 0.25 0.51562 0.13281 0.10547 0.32812 0.15625 0.57812 0.15625 0.20703 0 0.41406-0.023438 0.625-0.078125 0.20703-0.0625 0.42188-0.15625 0.64062-0.28125v0.73438c-0.21875 0.09375-0.44531 0.16406-0.67188 0.20312-0.23047 0.039062-0.45312 0.0625-0.67188 0.0625-0.54297 0-0.96484-0.13281-1.2656-0.40625-0.30469-0.28125-0.45312-0.67188-0.45312-1.1719 0-0.47656 0.14453-0.85938 0.4375-1.1406 0.30078-0.28125 0.70703-0.42188 1.2188-0.42188 0.46875 0 0.84375 0.14062 1.125 0.42188s0.42188 0.66406 0.42188 1.1406zm-0.96875-0.32812c0-0.17578-0.058594-0.31641-0.17188-0.42188-0.10547-0.11328-0.24219-0.17188-0.40625-0.17188-0.1875 0-0.33984 0.054687-0.45312 0.15625-0.11719 0.10547-0.1875 0.25-0.21875 0.4375z"
         id="path4557" /></symbol><symbol
       id="k-9"
       overflow="visible"><path
         d="m1.7969-1.3438c-0.19922 0-0.35156 0.039062-0.45312 0.10938-0.09375 0.0625-0.14062 0.16406-0.14062 0.29688 0 0.11719 0.035156 0.21094 0.10938 0.28125 0.082031 0.0625 0.19531 0.09375 0.34375 0.09375 0.17578 0 0.32812-0.0625 0.45312-0.1875s0.1875-0.28516 0.1875-0.48438v-0.10938zm1.4688-0.35938v1.7031h-0.96875v-0.4375c-0.125 0.17969-0.27344 0.30859-0.4375 0.39062-0.15625 0.082031-0.35156 0.125-0.57812 0.125-0.3125 0-0.57031-0.085938-0.76562-0.26562-0.1875-0.1875-0.28125-0.42188-0.28125-0.70312 0-0.35156 0.11719-0.61328 0.35938-0.78125 0.23828-0.16406 0.61719-0.25 1.1406-0.25h0.5625v-0.0625c0-0.15625-0.0625-0.26562-0.1875-0.32812-0.11719-0.070312-0.29688-0.10938-0.54688-0.10938-0.21094 0-0.40234 0.023437-0.57812 0.0625-0.17969 0.042969-0.33984 0.10156-0.48438 0.17188v-0.71875c0.19531-0.050781 0.39844-0.085938 0.60938-0.10938 0.20703-0.03125 0.41406-0.046875 0.625-0.046875 0.53906 0 0.92969 0.10938 1.1719 0.32812 0.23828 0.21094 0.35938 0.55469 0.35938 1.0312z"
         id="path4560" /></symbol><symbol
       id="c-4"
       overflow="visible"><path
         d="m1.5-3.8438v0.85938h0.98438v0.67188h-0.98438v1.2812c0 0.13672 0.023438 0.23047 0.078125 0.28125 0.0625 0.042969 0.17578 0.0625 0.34375 0.0625h0.48438v0.6875h-0.8125c-0.38672 0-0.65625-0.078125-0.8125-0.23438s-0.23438-0.42188-0.23438-0.79688v-1.2812h-0.46875v-0.67188h0.46875v-0.85938z"
         id="path4563" /></symbol><symbol
       id="j-7"
       overflow="visible"><path
         d="m2.5-2.5469v-1.6094h0.95312v4.1562h-0.95312v-0.4375c-0.13672 0.17969-0.28125 0.30859-0.4375 0.39062-0.15625 0.082031-0.33984 0.125-0.54688 0.125-0.375 0-0.68359-0.14453-0.92188-0.4375-0.23047-0.28906-0.34375-0.67188-0.34375-1.1406 0-0.45703 0.11328-0.83203 0.34375-1.125 0.23828-0.28906 0.54688-0.4375 0.92188-0.4375 0.19531 0 0.375 0.042969 0.53125 0.125 0.16406 0.085938 0.31641 0.21484 0.45312 0.39062zm-0.64062 1.9375c0.20703 0 0.36328-0.070313 0.46875-0.21875 0.11328-0.15625 0.17188-0.37891 0.17188-0.67188 0-0.28125-0.058594-0.49219-0.17188-0.64062-0.10547-0.15625-0.26172-0.23438-0.46875-0.23438-0.19922 0-0.35547 0.078125-0.46875 0.23438-0.10547 0.14844-0.15625 0.35938-0.15625 0.64062 0 0.29297 0.050781 0.51562 0.15625 0.67188 0.11328 0.14844 0.26953 0.21875 0.46875 0.21875z"
         id="path4566" /></symbol><symbol
       id="i-8"
       overflow="visible"><path
         d="m2.0469-0.60938c0.20703 0 0.36328-0.070313 0.46875-0.21875 0.11328-0.15625 0.17188-0.37891 0.17188-0.67188 0-0.28125-0.058594-0.49219-0.17188-0.64062-0.10547-0.15625-0.26172-0.23438-0.46875-0.23438-0.19922 0-0.35547 0.078125-0.46875 0.23438-0.10547 0.14844-0.15625 0.35938-0.15625 0.64062 0 0.29297 0.050781 0.51562 0.15625 0.67188 0.11328 0.14844 0.26953 0.21875 0.46875 0.21875zm-0.625-1.9375c0.125-0.17578 0.26562-0.30469 0.42188-0.39062 0.16406-0.082031 0.35156-0.125 0.5625-0.125 0.36328 0 0.66406 0.14844 0.90625 0.4375 0.23828 0.29297 0.35938 0.66797 0.35938 1.125 0 0.46875-0.12109 0.85156-0.35938 1.1406-0.24219 0.29297-0.54297 0.4375-0.90625 0.4375-0.21094 0-0.39844-0.042969-0.5625-0.125-0.15625-0.082031-0.29688-0.21094-0.42188-0.39062v0.4375h-0.96875v-4.1562h0.96875z"
         id="path4569" /></symbol><symbol
       id="h-4"
       overflow="visible"><path
         d="m0.0625-2.9844h0.95312l0.8125 2.0156 0.6875-2.0156h0.95312l-1.2656 3.2656c-0.125 0.33203-0.27344 0.56641-0.4375 0.70312-0.16797 0.13281-0.39062 0.20312-0.67188 0.20312h-0.54688v-0.64062h0.29688c0.16406 0 0.28516-0.027344 0.35938-0.078125 0.070313-0.054688 0.12891-0.14062 0.17188-0.26562l0.03125-0.09375z"
         id="path4572" /></symbol><symbol
       id="g-50"
       overflow="visible"><path
         d="m0.5-3.9844h1.0312v3.9844h-1.0312z"
         id="path4575" /></symbol><symbol
       id="f-3"
       overflow="visible"><path
         d="m2.875-2.8906v0.76562c-0.125-0.082031-0.25781-0.14453-0.39062-0.1875-0.13672-0.039062-0.27344-0.0625-0.40625-0.0625-0.27344 0-0.48047 0.078125-0.625 0.23438-0.14844 0.15625-0.21875 0.37109-0.21875 0.64062 0 0.28125 0.070313 0.5 0.21875 0.65625 0.14453 0.15625 0.35156 0.23438 0.625 0.23438 0.14453 0 0.28516-0.019531 0.42188-0.0625 0.13281-0.039063 0.25781-0.10938 0.375-0.20312v0.78125c-0.14844 0.0625-0.29688 0.10156-0.45312 0.125-0.15625 0.03125-0.3125 0.046875-0.46875 0.046875-0.54297 0-0.96484-0.13281-1.2656-0.40625-0.30469-0.28125-0.45312-0.67188-0.45312-1.1719 0-0.48828 0.14844-0.86719 0.45312-1.1406 0.30078-0.28125 0.72266-0.42188 1.2656-0.42188 0.15625 0 0.3125 0.015625 0.46875 0.046875 0.15625 0.023437 0.30469 0.0625 0.45312 0.125z"
         id="path4578" /></symbol><symbol
       id="b-6"
       overflow="visible"><path
         d="m1.875-2.375c-0.21094 0-0.37109 0.078125-0.48438 0.23438-0.10547 0.14844-0.15625 0.35938-0.15625 0.64062 0 0.29297 0.050781 0.51562 0.15625 0.67188 0.11328 0.14844 0.27344 0.21875 0.48438 0.21875 0.20703 0 0.36719-0.070313 0.48438-0.21875 0.11328-0.15625 0.17188-0.37891 0.17188-0.67188 0-0.28125-0.058594-0.49219-0.17188-0.64062-0.11719-0.15625-0.27734-0.23438-0.48438-0.23438zm0-0.6875c0.51953 0 0.92188 0.14062 1.2031 0.42188 0.28906 0.27344 0.4375 0.65234 0.4375 1.1406 0 0.5-0.14844 0.89062-0.4375 1.1719-0.28125 0.27344-0.68359 0.40625-1.2031 0.40625-0.51172 0-0.91406-0.13281-1.2031-0.40625-0.29297-0.28125-0.4375-0.67188-0.4375-1.1719 0-0.48828 0.14453-0.86719 0.4375-1.1406 0.28906-0.28125 0.69141-0.42188 1.2031-0.42188z"
         id="path4581" /></symbol><symbol
       id="e-1"
       overflow="visible"><path
         d="m3.4688-1.8281v1.8281h-0.96875v-1.3906c0-0.25781-0.007812-0.4375-0.015625-0.53125-0.011719-0.10156-0.03125-0.17578-0.0625-0.21875-0.03125-0.0625-0.085937-0.10938-0.15625-0.14062-0.0625-0.039062-0.13281-0.0625-0.20312-0.0625-0.21094 0-0.37109 0.078125-0.48438 0.23438-0.10547 0.15625-0.15625 0.37109-0.15625 0.64062v1.4688h-0.96875v-2.9844h0.96875v0.4375c0.13281-0.17578 0.28516-0.30469 0.45312-0.39062 0.16406-0.082031 0.34375-0.125 0.53125-0.125 0.34375 0 0.60156 0.10938 0.78125 0.32812 0.1875 0.21094 0.28125 0.51172 0.28125 0.90625z"
         id="path4584" /></symbol><symbol
       id="v"
       overflow="visible"><path
         d="m2.5-0.5c-0.13672 0.16797-0.28125 0.29297-0.4375 0.375-0.15625 0.085938-0.33984 0.125-0.54688 0.125-0.36719 0-0.66797-0.14062-0.90625-0.42188-0.24219-0.28906-0.35938-0.66016-0.35938-1.1094 0-0.44531 0.11719-0.8125 0.35938-1.0938 0.23828-0.28906 0.53906-0.4375 0.90625-0.4375 0.20703 0 0.39062 0.042969 0.54688 0.125 0.15625 0.085938 0.30078 0.21484 0.4375 0.39062v-0.4375h0.95312v2.6875c0 0.47656-0.15234 0.84375-0.45312 1.0938-0.30469 0.25781-0.74609 0.39062-1.3281 0.39062-0.17969 0-0.35547-0.015625-0.53125-0.046875-0.17969-0.03125-0.35547-0.078125-0.53125-0.14062v-0.73438c0.16406 0.09375 0.32812 0.16016 0.48438 0.20312 0.16406 0.050781 0.33203 0.078125 0.5 0.078125 0.3125 0 0.53906-0.070313 0.6875-0.20312 0.14453-0.13672 0.21875-0.34766 0.21875-0.64062zm-0.64062-1.875c-0.19922 0-0.35547 0.074219-0.46875 0.21875-0.10547 0.14844-0.15625 0.35547-0.15625 0.625 0 0.27344 0.050781 0.48047 0.15625 0.625 0.11328 0.14844 0.26953 0.21875 0.46875 0.21875 0.19531 0 0.35156-0.070312 0.46875-0.21875 0.11328-0.14453 0.17188-0.35156 0.17188-0.625 0-0.26953-0.058594-0.47656-0.17188-0.625-0.11719-0.14453-0.27344-0.21875-0.46875-0.21875z"
         id="path4587" /></symbol><symbol
       id="u-0"
       overflow="visible"><path
         d="m0.45312-4.1562h0.96875v2.2656l1.0938-1.0938h1.1094l-1.4531 1.3594 1.5625 1.625h-1.1562l-1.1562-1.25v1.25h-0.96875z"
         id="path4590" /></symbol><symbol
       id="t-63"
       overflow="visible"><path
         d="m1.5781-0.75h1.75v0.75h-2.8906v-0.75l1.4531-1.2969c0.125-0.11328 0.21875-0.22266 0.28125-0.32812 0.0625-0.11328 0.09375-0.23438 0.09375-0.35938 0-0.1875-0.0625-0.33594-0.1875-0.45312-0.125-0.11328-0.29297-0.17188-0.5-0.17188-0.15625 0-0.33594 0.039063-0.53125 0.10938-0.1875 0.0625-0.39062 0.16406-0.60938 0.29688v-0.875c0.23828-0.070313 0.46875-0.12891 0.6875-0.17188 0.22656-0.039062 0.45312-0.0625 0.67188-0.0625 0.47656 0 0.84766 0.10938 1.1094 0.32812 0.25781 0.21094 0.39062 0.5 0.39062 0.875 0 0.21094-0.058594 0.41406-0.17188 0.60938-0.10547 0.1875-0.33984 0.4375-0.70312 0.75z"
         id="path4593" /></symbol><symbol
       id="s-20"
       overflow="visible"><path
         d="m1.9844-1.9688c-0.1875 0-0.32812 0.058594-0.42188 0.17188-0.085938 0.11719-0.125 0.29297-0.125 0.53125 0 0.23047 0.039062 0.40625 0.125 0.53125 0.09375 0.11719 0.23438 0.17188 0.42188 0.17188 0.17578 0 0.30469-0.054688 0.39062-0.17188 0.09375-0.125 0.14062-0.30078 0.14062-0.53125 0-0.23828-0.046875-0.41406-0.14062-0.53125-0.085938-0.11328-0.21484-0.17188-0.39062-0.17188zm1.2656-1.9062v0.73438c-0.16797-0.082031-0.32812-0.14062-0.48438-0.17188-0.14844-0.039062-0.29297-0.0625-0.4375-0.0625-0.30469 0-0.54297 0.085938-0.71875 0.25-0.16797 0.16797-0.26562 0.41797-0.29688 0.75 0.125-0.082031 0.25391-0.14453 0.39062-0.1875 0.13281-0.039062 0.28516-0.0625 0.45312-0.0625 0.40625 0 0.73438 0.12109 0.98438 0.35938 0.25 0.23047 0.375 0.54297 0.375 0.9375 0 0.42969-0.14062 0.77344-0.42188 1.0312-0.28125 0.25-0.65625 0.375-1.125 0.375-0.52344 0-0.92188-0.17188-1.2031-0.51562-0.28125-0.35156-0.42188-0.85156-0.42188-1.5 0-0.65625 0.16016-1.1719 0.48438-1.5469 0.33203-0.375 0.78906-0.5625 1.375-0.5625 0.1875 0 0.36328 0.015625 0.53125 0.046875 0.17578 0.023438 0.34766 0.0625 0.51562 0.125z"
         id="path4596" /></symbol><symbol
       id="r-6"
       overflow="visible"><path
         d="m2.4219-4.1562v0.625h-0.51562c-0.13672 0-0.23438 0.027344-0.29688 0.078125-0.054687 0.054687-0.078125 0.13672-0.078125 0.25v0.21875h0.82812v0.67188h-0.82812v2.3125h-0.95312v-2.3125h-0.46875v-0.67188h0.46875v-0.21875c0-0.32031 0.085937-0.5625 0.26562-0.71875 0.1875-0.15625 0.47266-0.23438 0.85938-0.23438z"
         id="path4599" /></symbol><symbol
       id="q-1"
       overflow="visible"><path
         d="m3.2344-2.5c0.11328-0.17578 0.25391-0.3125 0.42188-0.40625 0.16406-0.10156 0.35156-0.15625 0.5625-0.15625 0.33203 0 0.58594 0.10938 0.76562 0.32812 0.1875 0.21094 0.28125 0.51172 0.28125 0.90625v1.8281h-0.96875v-1.5625c0.007813-0.019531 0.015625-0.039062 0.015625-0.0625v-0.10938c0-0.21875-0.03125-0.375-0.09375-0.46875s-0.16406-0.14062-0.29688-0.14062c-0.1875 0-0.33594 0.078125-0.4375 0.23438-0.09375 0.14844-0.14062 0.35938-0.14062 0.64062v1.4688h-0.96875v-1.5625c0-0.33203-0.03125-0.54688-0.09375-0.64062-0.054688-0.09375-0.15234-0.14062-0.29688-0.14062-0.17969 0-0.32031 0.078125-0.42188 0.23438-0.09375 0.14844-0.14062 0.35938-0.14062 0.64062v1.4688h-0.96875v-2.9844h0.96875v0.4375c0.11328-0.17578 0.24219-0.30469 0.39062-0.39062 0.15625-0.082031 0.32812-0.125 0.51562-0.125 0.20703 0 0.39062 0.054688 0.54688 0.15625 0.15625 0.09375 0.27344 0.23047 0.35938 0.40625z"
         id="path4602" /></symbol><symbol
       id="p-5"
       overflow="visible"><path
         d="m3.4688-1.8281v1.8281h-0.96875v-1.3906c0-0.25781-0.007812-0.4375-0.015625-0.53125-0.011719-0.10156-0.03125-0.17578-0.0625-0.21875-0.03125-0.0625-0.085937-0.10938-0.15625-0.14062-0.0625-0.039062-0.13281-0.0625-0.20312-0.0625-0.21094 0-0.37109 0.078125-0.48438 0.23438-0.10547 0.15625-0.15625 0.37109-0.15625 0.64062v1.4688h-0.96875v-4.1562h0.96875v1.6094c0.13281-0.17578 0.28516-0.30469 0.45312-0.39062 0.16406-0.082031 0.34375-0.125 0.53125-0.125 0.34375 0 0.60156 0.10938 0.78125 0.32812 0.1875 0.21094 0.28125 0.51172 0.28125 0.90625z"
         id="path4605" /></symbol><symbol
       id="o-5"
       overflow="visible"><path
         d="m0.5-3.9844h1.1562l1.4375 2.7344v-2.7344h0.98438v3.9844h-1.1562l-1.4375-2.7344v2.7344h-0.98438z"
         id="path4608" /></symbol><symbol
       id="n-4"
       overflow="visible"><path
         d="m0.42188-1.1719v-1.8125h0.96875v0.29688 0.60938 0.48438c0 0.24219 0.003906 0.41797 0.015625 0.53125 0.007812 0.10547 0.03125 0.17969 0.0625 0.21875 0.039062 0.0625 0.09375 0.11719 0.15625 0.15625 0.0625 0.03125 0.13281 0.046875 0.21875 0.046875 0.19531 0 0.35156-0.078125 0.46875-0.23438 0.11328-0.15625 0.17188-0.36719 0.17188-0.64062v-1.4688h0.95312v2.9844h-0.95312v-0.4375c-0.14844 0.17969-0.30469 0.30859-0.46875 0.39062-0.15625 0.082031-0.33594 0.125-0.53125 0.125-0.34375 0-0.60938-0.10156-0.79688-0.3125-0.17969-0.21875-0.26562-0.53125-0.26562-0.9375z"
         id="path4611" /></symbol><symbol
       id="m-7"
       overflow="visible"><path
         d="m0.5-3.9844h1.7031c0.50781 0 0.89844 0.11719 1.1719 0.34375 0.26953 0.21875 0.40625 0.53906 0.40625 0.95312 0 0.41797-0.13672 0.74219-0.40625 0.96875-0.27344 0.21875-0.66406 0.32812-1.1719 0.32812h-0.67188v1.3906h-1.0312zm1.0312 0.75v1.1094h0.5625c0.19531 0 0.34766-0.046875 0.45312-0.14062 0.11328-0.10156 0.17188-0.24219 0.17188-0.42188 0-0.17578-0.058594-0.3125-0.17188-0.40625-0.10547-0.09375-0.25781-0.14062-0.45312-0.14062z"
         id="path4614" /></symbol><symbol
       id="l-65"
       overflow="visible"><path
         d="m0.45312-2.9844h0.96875v2.9375c0 0.39453-0.10156 0.69531-0.29688 0.90625-0.1875 0.21875-0.46484 0.32812-0.82812 0.32812h-0.48438v-0.64062h0.17188c0.17578 0 0.29688-0.042969 0.35938-0.125 0.070312-0.074219 0.10938-0.23047 0.10938-0.46875zm0-1.1719h0.96875v0.78125h-0.96875z"
         id="path4617" /></symbol><symbol
       id="u-5"
       overflow="visible"><path
         d="m18.766-1.125c-0.96875 0.5-1.9805 0.875-3.0312 1.125-1.043 0.25781-2.1367 0.39062-3.2812 0.39062-3.3984 0-6.0898-0.94531-8.0781-2.8438-1.9922-1.9062-2.9844-4.4844-2.9844-7.7344 0-3.2578 0.99219-5.8359 2.9844-7.7344 1.9883-1.9062 4.6797-2.8594 8.0781-2.8594 1.1445 0 2.2383 0.13281 3.2812 0.39062 1.0508 0.25 2.0625 0.625 3.0312 1.125v4.2188c-0.98047-0.65625-1.9453-1.1406-2.8906-1.4531-0.94922-0.3125-1.9492-0.46875-3-0.46875-1.875 0-3.3516 0.60547-4.4219 1.8125-1.0742 1.1992-1.6094 2.8555-1.6094 4.9688 0 2.1055 0.53516 3.7617 1.6094 4.9688 1.0703 1.1992 2.5469 1.7969 4.4219 1.7969 1.0508 0 2.0508-0.14844 3-0.45312 0.94531-0.3125 1.9102-0.80078 2.8906-1.4688z"
         id="path7604" /></symbol><symbol
       id="b-2"
       overflow="visible"><path
         d="m13.734-11.141c-0.4375-0.19531-0.87109-0.34375-1.2969-0.4375-0.41797-0.10156-0.83984-0.15625-1.2656-0.15625-1.2617 0-2.2305 0.40625-2.9062 1.2188-0.67969 0.80469-1.0156 1.9531-1.0156 3.4531v7.0625h-4.8906v-15.312h4.8906v2.5156c0.625-1 1.3438-1.7266 2.1562-2.1875 0.82031-0.46875 1.8008-0.70312 2.9375-0.70312 0.16406 0 0.34375 0.011719 0.53125 0.03125 0.19531 0.011719 0.47656 0.039062 0.84375 0.078125z"
         id="path7607" /></symbol><symbol
       id="a-5"
       overflow="visible"><path
         d="m17.641-7.7031v1.4062h-11.453c0.125 1.1484 0.53906 2.0078 1.25 2.5781 0.70703 0.57422 1.7031 0.85938 2.9844 0.85938 1.0312 0 2.082-0.14844 3.1562-0.45312 1.082-0.3125 2.1914-0.77344 3.3281-1.3906v3.7656c-1.1562 0.4375-2.3125 0.76562-3.4688 0.98438-1.1562 0.22656-2.3125 0.34375-3.4688 0.34375-2.7734 0-4.9297-0.70312-6.4688-2.1094-1.5312-1.4062-2.2969-3.3789-2.2969-5.9219 0-2.5 0.75391-4.4609 2.2656-5.8906 1.5078-1.4375 3.582-2.1562 6.2188-2.1562 2.4062 0 4.332 0.73047 5.7812 2.1875 1.4453 1.4492 2.1719 3.3828 2.1719 5.7969zm-5.0312-1.625c0-0.92578-0.27344-1.6719-0.8125-2.2344-0.54297-0.57031-1.25-0.85938-2.125-0.85938-0.94922 0-1.7188 0.26562-2.3125 0.79688s-0.96484 1.2969-1.1094 2.2969z"
         id="path7610" /></symbol><symbol
       id="k-4"
       overflow="visible"><path
         d="m9.2188-6.8906c-1.0234 0-1.793 0.17188-2.3125 0.51562-0.51172 0.34375-0.76562 0.85547-0.76562 1.5312 0 0.625 0.20703 1.1172 0.625 1.4688 0.41406 0.34375 0.98828 0.51562 1.7188 0.51562 0.92578 0 1.7031-0.32812 2.3281-0.98438 0.63281-0.66406 0.95312-1.4922 0.95312-2.4844v-0.5625zm7.4688-1.8438v8.7344h-4.9219v-2.2656c-0.65625 0.92969-1.3984 1.6055-2.2188 2.0312-0.82422 0.41406-1.8242 0.625-3 0.625-1.5859 0-2.8711-0.45703-3.8594-1.375-0.99219-0.92578-1.4844-2.1289-1.4844-3.6094 0-1.7891 0.61328-3.1016 1.8438-3.9375 1.2383-0.84375 3.1797-1.2656 5.8281-1.2656h2.8906v-0.39062c0-0.76953-0.30859-1.332-0.92188-1.6875-0.61719-0.36328-1.5703-0.54688-2.8594-0.54688-1.0547 0-2.0312 0.10547-2.9375 0.3125-0.89844 0.21094-1.7305 0.52344-2.5 0.9375v-3.7344c1.0391-0.25 2.0859-0.44141 3.1406-0.57812 1.0625-0.13281 2.125-0.20312 3.1875-0.20312 2.7578 0 4.75 0.54688 5.9688 1.6406 1.2266 1.0859 1.8438 2.8555 1.8438 5.3125z"
         id="path7613" /></symbol><symbol
       id="c-7"
       overflow="visible"><path
         d="m7.7031-19.656v4.3438h5.0469v3.5h-5.0469v6.5c0 0.71094 0.14062 1.1875 0.42188 1.4375s0.83594 0.375 1.6719 0.375h2.5156v3.5h-4.1875c-1.9375 0-3.3125-0.39844-4.125-1.2031-0.80469-0.8125-1.2031-2.1797-1.2031-4.1094v-6.5h-2.4219v-3.5h2.4219v-4.3438z"
         id="path7616" /></symbol><symbol
       id="j-4"
       overflow="visible"><path
         d="m12.766-13.078v-8.2031h4.9219v21.281h-4.9219v-2.2188c-0.66797 0.90625-1.4062 1.5703-2.2188 1.9844s-1.7578 0.625-2.8281 0.625c-1.8867 0-3.4336-0.75-4.6406-2.25-1.2109-1.5-1.8125-3.4258-1.8125-5.7812 0-2.3633 0.60156-4.2969 1.8125-5.7969 1.207-1.5 2.7539-2.25 4.6406-2.25 1.0625 0 2 0.21484 2.8125 0.64062 0.82031 0.42969 1.5664 1.0859 2.2344 1.9688zm-3.2188 9.9219c1.0391 0 1.8359-0.37891 2.3906-1.1406 0.55078-0.76953 0.82812-1.8828 0.82812-3.3438 0-1.457-0.27734-2.5664-0.82812-3.3281-0.55469-0.76953-1.3516-1.1562-2.3906-1.1562-1.043 0-1.8398 0.38672-2.3906 1.1562-0.55469 0.76172-0.82812 1.8711-0.82812 3.3281 0 1.4609 0.27344 2.5742 0.82812 3.3438 0.55078 0.76172 1.3477 1.1406 2.3906 1.1406z"
         id="path7619" /></symbol><symbol
       id="i-4"
       overflow="visible"><path
         d="m10.5-3.1562c1.0508 0 1.8516-0.37891 2.4062-1.1406 0.55078-0.76953 0.82812-1.8828 0.82812-3.3438 0-1.457-0.27734-2.5664-0.82812-3.3281-0.55469-0.76953-1.3555-1.1562-2.4062-1.1562-1.0547 0-1.8594 0.38672-2.4219 1.1562-0.55469 0.77344-0.82812 1.8828-0.82812 3.3281 0 1.4492 0.27344 2.5586 0.82812 3.3281 0.5625 0.77344 1.3672 1.1562 2.4219 1.1562zm-3.25-9.9219c0.67578-0.88281 1.4219-1.5391 2.2344-1.9688 0.82031-0.42578 1.7656-0.64062 2.8281-0.64062 1.8945 0 3.4453 0.75 4.6562 2.25 1.207 1.5 1.8125 3.4336 1.8125 5.7969 0 2.3555-0.60547 4.2812-1.8125 5.7812-1.2109 1.5-2.7617 2.25-4.6562 2.25-1.0625 0-2.0078-0.21094-2.8281-0.625-0.8125-0.42578-1.5586-1.0859-2.2344-1.9844v2.2188h-4.8906v-21.281h4.8906z"
         id="path7622" /></symbol><symbol
       id="h-3"
       overflow="visible"><path
         d="m0.34375-15.312h4.8906l4.125 10.391 3.5-10.391h4.8906l-6.4375 16.766c-0.64844 1.6953-1.4023 2.8828-2.2656 3.5625-0.86719 0.6875-2 1.0312-3.4062 1.0312h-2.8438v-3.2188h1.5312c0.83203 0 1.4375-0.13672 1.8125-0.40625 0.38281-0.26172 0.67969-0.73047 0.89062-1.4062l0.14062-0.42188z"
         id="path7625" /></symbol><symbol
       id="e-0"
       overflow="visible"><path
         d="m2.5781-20.406h5.875l7.4219 14v-14h4.9844v20.406h-5.875l-7.4219-14v14h-4.9844z"
         id="path7628" /></symbol><symbol
       id="t-7"
       overflow="visible"><path
         d="m2.3594-15.312h4.8906v15.312h-4.8906zm0-5.9688h4.8906v4h-4.8906z"
         id="path7631" /></symbol><symbol
       id="g-8"
       overflow="visible"><path
         d="m14.719-14.828v3.9844c-0.65625-0.45703-1.3242-0.79688-2-1.0156-0.66797-0.21875-1.3594-0.32812-2.0781-0.32812-1.3672 0-2.4336 0.40234-3.2031 1.2031-0.76172 0.79297-1.1406 1.9062-1.1406 3.3438 0 1.4297 0.37891 2.543 1.1406 3.3438 0.76953 0.79297 1.8359 1.1875 3.2031 1.1875 0.75781 0 1.4844-0.10938 2.1719-0.32812 0.6875-0.22656 1.3203-0.56641 1.9062-1.0156v4c-0.76172 0.28125-1.5391 0.48828-2.3281 0.625-0.78125 0.14453-1.5742 0.21875-2.375 0.21875-2.7617 0-4.9219-0.70703-6.4844-2.125-1.5547-1.4141-2.3281-3.3828-2.3281-5.9062 0-2.5312 0.77344-4.5039 2.3281-5.9219 1.5625-1.4141 3.7227-2.125 6.4844-2.125 0.80078 0 1.5938 0.074219 2.375 0.21875 0.78125 0.13672 1.5547 0.35156 2.3281 0.64062z"
         id="path7634" /></symbol><symbol
       id="s-6"
       overflow="visible"><path
         d="m2.3594-21.281h4.8906v11.594l5.625-5.625h5.6875l-7.4688 7.0312 8.0625 8.2812h-5.9375l-5.9688-6.3906v6.3906h-4.8906z"
         id="path7637" /></symbol><symbol
       id="r-8"
       overflow="visible"><path
         d="m20.922-1.5156c-1.3125 0.63672-2.6797 1.1172-4.0938 1.4375-1.4062 0.3125-2.8672 0.46875-4.375 0.46875-3.3984 0-6.0898-0.94531-8.0781-2.8438-1.9922-1.9062-2.9844-4.4844-2.9844-7.7344 0-3.2891 1.0078-5.8789 3.0312-7.7656 2.0312-1.8828 4.8047-2.8281 8.3281-2.8281 1.3516 0 2.6484 0.13281 3.8906 0.39062 1.25 0.25 2.4258 0.625 3.5312 1.125v4.2188c-1.1484-0.64453-2.2812-1.125-3.4062-1.4375-1.125-0.32031-2.25-0.48438-3.375-0.48438-2.1055 0-3.7266 0.58984-4.8594 1.7656-1.125 1.168-1.6875 2.8398-1.6875 5.0156 0 2.1562 0.54688 3.8242 1.6406 5 1.0938 1.1797 2.6445 1.7656 4.6562 1.7656 0.53906 0 1.0469-0.03125 1.5156-0.09375 0.47656-0.070313 0.89844-0.17969 1.2656-0.32812v-3.9688h-3.2031v-3.5156h8.2031z"
         id="path7640" /></symbol><symbol
       id="f-8"
       overflow="visible"><path
         d="m17.75-9.3281v9.3281h-4.9219v-7.1406c0-1.3203-0.03125-2.2344-0.09375-2.7344s-0.16797-0.86719-0.3125-1.1094c-0.1875-0.3125-0.44922-0.55469-0.78125-0.73438-0.32422-0.17578-0.69531-0.26562-1.1094-0.26562-1.0234 0-1.8242 0.39844-2.4062 1.1875-0.58594 0.78125-0.875 1.8711-0.875 3.2656v7.5312h-4.8906v-15.312h4.8906v2.2344c0.73828-0.88281 1.5195-1.5391 2.3438-1.9688 0.83203-0.42578 1.75-0.64062 2.75-0.64062 1.7695 0 3.1133 0.54688 4.0312 1.6406 0.91406 1.0859 1.375 2.6562 1.375 4.7188z"
         id="path7643" /></symbol><symbol
       id="q-4"
       overflow="visible"><path
         d="m12.422-21.281v3.2188h-2.7031c-0.6875 0-1.1719 0.125-1.4531 0.375-0.27344 0.25-0.40625 0.6875-0.40625 1.3125v1.0625h4.1875v3.5h-4.1875v11.812h-4.8906v-11.812h-2.4375v-3.5h2.4375v-1.0625c0-1.6641 0.46094-2.8984 1.3906-3.7031 0.92578-0.80078 2.3672-1.2031 4.3281-1.2031z"
         id="path7646" /></symbol><symbol
       id="d-31"
       overflow="visible"><path
         d="m9.6406-12.188c-1.0859 0-1.9141 0.39062-2.4844 1.1719-0.57422 0.78125-0.85938 1.9062-0.85938 3.375s0.28516 2.5938 0.85938 3.375c0.57031 0.77344 1.3984 1.1562 2.4844 1.1562 1.0625 0 1.875-0.38281 2.4375-1.1562 0.57031-0.78125 0.85938-1.9062 0.85938-3.375s-0.28906-2.5938-0.85938-3.375c-0.5625-0.78125-1.375-1.1719-2.4375-1.1719zm0-3.5c2.6328 0 4.6914 0.71484 6.1719 2.1406 1.4766 1.418 2.2188 3.3867 2.2188 5.9062 0 2.5117-0.74219 4.4805-2.2188 5.9062-1.4805 1.418-3.5391 2.125-6.1719 2.125-2.6484 0-4.7148-0.70703-6.2031-2.125-1.4922-1.4258-2.2344-3.3945-2.2344-5.9062 0-2.5195 0.74219-4.4883 2.2344-5.9062 1.4883-1.4258 3.5547-2.1406 6.2031-2.1406z"
         id="path7649" /></symbol><symbol
       id="p-4"
       overflow="visible"><path
         d="m16.547-12.766c0.61328-0.94531 1.3477-1.6719 2.2031-2.1719 0.85156-0.5 1.7891-0.75 2.8125-0.75 1.7578 0 3.0977 0.54688 4.0156 1.6406 0.92578 1.0859 1.3906 2.6562 1.3906 4.7188v9.3281h-4.9219v-7.9844-0.35938c0.007813-0.13281 0.015625-0.32031 0.015625-0.5625 0-1.082-0.16406-1.8633-0.48438-2.3438-0.3125-0.48828-0.82422-0.73438-1.5312-0.73438-0.92969 0-1.6484 0.38672-2.1562 1.1562-0.51172 0.76172-0.77344 1.8672-0.78125 3.3125v7.5156h-4.9219v-7.9844c0-1.6953-0.14844-2.7852-0.4375-3.2656-0.29297-0.48828-0.8125-0.73438-1.5625-0.73438-0.9375 0-1.6641 0.38672-2.1719 1.1562-0.51172 0.76172-0.76562 1.8594-0.76562 3.2969v7.5312h-4.9219v-15.312h4.9219v2.2344c0.60156-0.86328 1.2891-1.5156 2.0625-1.9531 0.78125-0.4375 1.6406-0.65625 2.5781-0.65625 1.0625 0 2 0.25781 2.8125 0.76562 0.8125 0.51172 1.4258 1.2305 1.8438 2.1562z"
         id="path7652" /></symbol><symbol
       id="o-9"
       overflow="visible"><path
         d="m17.75-9.3281v9.3281h-4.9219v-7.1094c0-1.3438-0.03125-2.2656-0.09375-2.7656s-0.16797-0.86719-0.3125-1.1094c-0.1875-0.3125-0.44922-0.55469-0.78125-0.73438-0.32422-0.17578-0.69531-0.26562-1.1094-0.26562-1.0234 0-1.8242 0.39844-2.4062 1.1875-0.58594 0.78125-0.875 1.8711-0.875 3.2656v7.5312h-4.8906v-21.281h4.8906v8.2031c0.73828-0.88281 1.5195-1.5391 2.3438-1.9688 0.83203-0.42578 1.75-0.64062 2.75-0.64062 1.7695 0 3.1133 0.54688 4.0312 1.6406 0.91406 1.0859 1.375 2.6562 1.375 4.7188z"
         id="path7655" /></symbol><symbol
       id="n-2"
       overflow="visible"><path
         d="m2.1875-5.9688v-9.3438h4.9219v1.5312c0 0.83594-0.007813 1.875-0.015625 3.125-0.011719 1.25-0.015625 2.0859-0.015625 2.5 0 1.2422 0.03125 2.1328 0.09375 2.6719 0.070313 0.54297 0.17969 0.93359 0.32812 1.1719 0.20703 0.32422 0.47266 0.57422 0.79688 0.75 0.32031 0.16797 0.69141 0.25 1.1094 0.25 1.0195 0 1.8203-0.39062 2.4062-1.1719 0.58203-0.78125 0.875-1.8672 0.875-3.2656v-7.5625h4.8906v15.312h-4.8906v-2.2188c-0.74219 0.89844-1.5234 1.5586-2.3438 1.9844-0.82422 0.41406-1.7344 0.625-2.7344 0.625-1.7617 0-3.1055-0.53906-4.0312-1.625-0.92969-1.082-1.3906-2.6602-1.3906-4.7344z"
         id="path7658" /></symbol><symbol
       id="m-06"
       overflow="visible"><path
         d="m2.5781-20.406h8.7344c2.5938 0 4.582 0.57812 5.9688 1.7344 1.3945 1.1484 2.0938 2.7891 2.0938 4.9219 0 2.1367-0.69922 3.7812-2.0938 4.9375-1.3867 1.1562-3.375 1.7344-5.9688 1.7344h-3.4844v7.0781h-5.25zm5.25 3.8125v5.7031h2.9219c1.0195 0 1.8047-0.25 2.3594-0.75 0.5625-0.5 0.84375-1.2031 0.84375-2.1094 0-0.91406-0.28125-1.6172-0.84375-2.1094-0.55469-0.48828-1.3398-0.73438-2.3594-0.73438z"
         id="path7661" /></symbol><symbol
       id="l-8"
       overflow="visible"><path
         d="m2.3594-15.312h4.8906v15.031c0 2.0508-0.49609 3.6172-1.4844 4.7031-0.98047 1.082-2.4062 1.625-4.2812 1.625h-2.4219v-3.2188h0.85938c0.92578 0 1.5625-0.21094 1.9062-0.625 0.35156-0.41797 0.53125-1.2461 0.53125-2.4844zm0-5.9688h4.8906v4h-4.8906z"
         id="path7664" /></symbol></defs><path
     style="fill:url(#linearGradient17301);fill-opacity:1;stroke:none;stroke-width:1.43535;stroke-linecap:round;stroke-linejoin:round;paint-order:markers stroke fill;stop-color:#000000"
     id="path15851-2"
     d="m 78.95818,66.692264 c -2.5981,4.500063 -33.30861,22.230755 -38.50481,22.230755 -5.19619,0 -35.90669,-17.730692 -38.5048,-22.230755 -2.5981,-4.500034 -2.5981,-39.961475 0,-44.46151 C 4.54668,17.73072 35.25718,-10e-7 40.45337,-10e-7 c 5.1962,0 35.90671,17.730721 38.50481,22.230755 2.5981,4.500035 2.5981,39.961476 0,44.46151 z" /><path
     d="m 34.155621,17.632552 v -4.169669 c 0,-0.690974 -0.55993,-1.2509 -1.250904,-1.2509 -0.690228,0 -1.250898,0.559926 -1.250898,1.2509 v 4.169669 c 0,0.690974 0.56067,1.250901 1.250898,1.250901 0.690974,0 1.250904,-0.559927 1.250904,-1.250901 z"
     id="path4622"
     style="fill:#ffffff;stroke-width:0.190614" /><path
     d="m 57.714275,22.908427 v -4.169669 c 0,-0.690975 -0.559929,-1.250902 -1.250903,-1.250902 -0.690974,0 -1.250899,0.559927 -1.250899,1.250902 v 4.169669 c 0,0.690974 0.559925,1.250901 1.250899,1.250901 0.690974,0 1.250903,-0.559927 1.250903,-1.250901 z"
     id="path4644"
     style="fill:#ffffff;stroke-width:0.190614" /><path
     d="m 7.8076266,53.678839 v 4.169669 c 0,0.690974 0.559924,1.250901 1.250898,1.250901 0.6909737,0 1.2509034,-0.559927 1.2509034,-1.250901 v -4.169669 c 0,-0.690974 -0.5599297,-1.2509 -1.2509034,-1.2509 -0.690974,0 -1.250898,0.559926 -1.250898,1.2509 z"
     id="path4646"
     style="fill:#ffffff;stroke-width:0.190614" /><path
     style="color:#000000;fill:#ffffff;stroke-width:1.30488;stroke-linecap:square;stroke-linejoin:round"
     d="M 40.441581,75.704045 V 70.903696"
     id="path8992" /><g
     id="g17968"
     transform="matrix(0.59538557,0,0,0.59538557,260.20586,12.289677)"
     style="fill:#ffffff"><path
       id="path4402-7-6-7"
       style="fill:#ffffff;stroke-width:0.164394"
       d="m -371.63675,9.4950277 c -3.49375,16.5840443 -15.8774,22.7855683 -24.90545,31.1531373 6.19865,3.707597 11.95001,7.709146 16.49925,11.620479 5.46862,4.701809 9.34179,9.137734 9.90017,13.484448 0.39803,3.098504 -0.0241,4.977469 -0.3669,6.167583 h 3.38635 c 0.82856,-9.4e-5 1.50026,0.671608 1.50017,1.500166 9e-5,0.828559 -0.67161,1.500261 -1.50017,1.500167 h -3.67368 c -0.43868,0 -0.78397,-0.0026 -1.13688,-0.04289 -0.35291,-0.04028 -0.79682,-0.06551 -1.30638,-0.535368 -0.50958,-0.469856 -0.60377,-1.267442 -0.55087,-1.644344 0.0529,-0.3769 0.14179,-0.599051 0.22479,-0.851628 0.33194,-1.010311 0.86854,-2.447368 0.44907,-5.712829 -0.34311,-2.670937 -3.63238,-7.077999 -8.88266,-11.592058 -4.52785,-3.892951 -10.41164,-7.965621 -16.75298,-11.718147 -5.45905,5.752764 -9.05161,12.877212 -7.38198,24.852229 2.09062,12.396171 8.23409,20.561781 16.07654,25.370028 -0.078,-4.516996 -0.065,-8.310516 0.29455,-11.422042 0.36693,-3.175802 1.08925,-5.735481 2.7032,-7.591784 1.61395,-1.856302 4.06382,-2.744019 7.09,-2.744019 0.82836,1.93e-4 1.49974,0.671811 1.49965,1.500167 -1.9e-4,0.828154 -0.6715,1.499457 -1.49965,1.49965 -2.49418,0 -3.84387,0.583381 -4.82606,1.713074 -0.98221,1.129694 -1.65202,3.072098 -1.98644,5.966561 -0.36703,3.176245 -0.33162,7.496704 -0.22841,12.739274 11.25025,5.428818 25.11698,4.789395 35.6154,0.285254 0.10796,-5.368526 0.15211,-9.793628 -0.22118,-13.024528 -0.33443,-2.894463 -1.00424,-4.836867 -1.98644,-5.966561 -0.98221,-1.129693 -2.33188,-1.713074 -4.82606,-1.713074 -0.82836,9.4e-5 -1.49998,-0.671293 -1.50017,-1.49965 -9e-5,-0.828559 0.67161,-1.500261 1.50017,-1.500167 3.02619,0 5.47606,0.887717 7.09001,2.744019 1.61394,1.856303 2.33626,4.415982 2.70319,7.591784 0.37197,3.219743 0.37394,7.174077 0.28629,11.901083 2.19427,-1.181233 4.95497,-3.761576 6.80418,-5.845012 14.61037,-16.460965 11.31843,-43.74881 -1.1482,-58.415149 -0.47956,5.789545 -6.575,14.062976 -10.51047,18.702735 5.49823,-12.763234 3.62504,-28.050993 -18.43195,-38.4725883 z m -16.93023,51.5095173 c 0.13104,0.0026 0.26117,0.02245 0.38706,0.05891 l 8.26771,2.388485 c 0.79628,0.229699 1.25539,1.061615 1.02526,1.857768 -0.22971,0.796016 -1.06126,1.255061 -1.85725,1.02526 l -8.26926,-2.390552 c -0.79539,-0.230381 -1.25363,-1.061725 -1.02371,-1.857251 0.18871,-0.651914 0.79164,-1.095897 1.47019,-1.08262 z m 38.73304,0 c 0.67874,-0.01351 1.28195,0.430517 1.47071,1.082621 0.2298,0.795989 -0.22924,1.627545 -1.02526,1.857251 l -8.26772,2.390552 c -0.79615,0.230129 -1.62806,-0.228985 -1.85776,-1.02526 -0.23025,-0.79569 0.22806,-1.627394 1.02371,-1.857768 l 8.26926,-2.388485 c 0.12589,-0.03646 0.25602,-0.05627 0.38706,-0.05891 z m -25.48269,17.932239 h 12.40235 c 0.82835,-8.8e-5 1.49997,0.671297 1.50016,1.49965 9e-5,0.828555 -0.67161,1.500255 -1.50016,1.500167 h -12.40235 c -0.82836,-1.93e-4 -1.49974,-0.671811 -1.49965,-1.500167 1.9e-4,-0.828154 0.6715,-1.499457 1.49965,-1.49965 z" /></g></svg>
